<svg width="284" height="75" viewBox="0 0 284 75" fill="none" xmlns="http://www.w3.org/2000/svg">
<rect width="284" height="75" fill="#FDF12A"/>
<path d="M63.7578 35.5937H66.3359L76.4336 23.2891L81.4922 23.2891L69.9297 36.9609L81.4922 52L76.2383 52L66.3359 38.8359H63.7578L63.7578 52L59.9297 52L59.9297 38.8359H57.3516L47.4102 52L42.1953 52L53.9922 37.1172L42.3711 23.2891L47.332 23.2891L57.3516 35.5937H59.9297L59.9297 23.2891L63.7578 23.2891L63.7578 35.5937ZM87.5273 48.1523C87.6706 48.2695 87.8594 48.3932 88.0938 48.5234C88.3281 48.6406 88.582 48.7513 88.8555 48.8555C89.1289 48.9466 89.4089 49.0247 89.6953 49.0898C89.9948 49.1419 90.2813 49.168 90.5547 49.168C91.1406 49.168 91.6419 49.0898 92.0586 48.9336C92.4883 48.7643 92.8529 48.5495 93.1523 48.2891C93.4648 48.0156 93.7188 47.7096 93.9141 47.3711C94.1094 47.0195 94.2656 46.6549 94.3828 46.2773L82.6055 23.2891L87.0781 23.2891L96.5703 42.3125L103.758 23.2891L108.094 23.2891L99.0703 44.7539C98.4453 46.1862 97.8594 47.4102 97.3125 48.4258C96.7786 49.4284 96.1927 50.2487 95.5547 50.8867C94.9297 51.5247 94.2135 51.987 93.4063 52.2734C92.612 52.5729 91.6484 52.7227 90.5156 52.7227C89.9297 52.7227 89.3568 52.6445 88.7969 52.4883C88.237 52.332 87.8073 52.1302 87.5078 51.8828L87.5273 48.1523ZM130.125 35.5937H132.703L142.801 23.2891L147.859 23.2891L136.297 36.9609L147.859 52L142.605 52L132.703 38.8359H130.125V52L126.297 52L126.297 38.8359H123.719L113.777 52L108.563 52L120.359 37.1172L108.738 23.2891L113.699 23.2891L123.719 35.5937H126.297L126.297 23.2891L130.125 23.2891L130.125 35.5937ZM169.813 35.5937L172.391 35.5937L182.488 23.2891L187.547 23.2891L175.984 36.9609L187.547 52L182.293 52L172.391 38.8359L169.813 38.8359V52L165.984 52V38.8359H163.406L153.465 52L148.25 52L160.047 37.1172L148.426 23.2891L153.387 23.2891L163.406 35.5937H165.984L165.984 23.2891L169.812 23.2891L169.813 35.5937ZM190.711 23.2891L194.539 23.2891L194.539 46.5117H194.617L209.227 23.2891L213.66 23.2891L213.66 52H209.813L209.813 28.6406H209.734L195.145 52L190.711 52L190.711 23.2891ZM219.617 23.2891L225.125 23.2891L233.25 47.4492H233.328L241.453 23.2891L246.961 23.2891L246.961 52H243.367L243.367 27.8398H243.289L235.203 52L231.375 52L223.289 27.8398H223.211L223.211 52L219.617 52L219.617 23.2891Z" fill="black"/>
</svg>
