<svg width="284" height="75" viewBox="0 0 284 75" fill="none" xmlns="http://www.w3.org/2000/svg">
<rect width="284" height="75" fill="#FDF12A"/>
<path d="M87.7578 36.5937H90.3359L100.434 24.2891L105.492 24.2891L93.9297 37.9609L105.492 53L100.238 53L90.3359 39.8359H87.7578L87.7578 53L83.9297 53L83.9297 39.8359H81.3516L71.4102 53L66.1953 53L77.9922 38.1172L66.3711 24.2891L71.332 24.2891L81.3516 36.5937H83.9297L83.9297 24.2891L87.7578 24.2891L87.7578 36.5937ZM123.852 41.1641L119.477 28.3906L114.633 41.1641L123.852 41.1641ZM106.391 53L117.152 23.8398L121.82 23.8398L132.23 53L127.973 53L124.945 44.2109L113.656 44.2109L110.453 53L106.391 53ZM153.48 27.6484L143.227 27.6484C143.227 29.875 143.201 32.0625 143.148 34.2109C143.096 36.3594 142.986 38.3971 142.816 40.3242C142.647 42.2383 142.393 44.0026 142.055 45.6172C141.716 47.2318 141.254 48.6315 140.668 49.8164C140.082 50.9883 139.353 51.9062 138.48 52.5703C137.621 53.2214 136.573 53.5469 135.336 53.5469C134.958 53.5469 134.639 53.5143 134.379 53.4492C134.132 53.3841 133.858 53.3125 133.559 53.2344V49.6797C133.702 49.7448 133.878 49.8034 134.086 49.8555C134.307 49.8945 134.62 49.9141 135.023 49.9141C135.622 49.9141 136.137 49.6992 136.566 49.2695C137.009 48.8268 137.387 48.2148 137.699 47.4336C138.012 46.6523 138.266 45.7279 138.461 44.6602C138.669 43.5794 138.832 42.4076 138.949 41.1445C139.079 39.8815 139.171 38.5469 139.223 37.1406C139.288 35.7344 139.333 34.3086 139.359 32.8633C139.398 31.4049 139.418 29.9531 139.418 28.5078C139.431 27.0495 139.451 25.6432 139.477 24.2891L157.328 24.2891L157.328 53L153.48 53L153.48 27.6484ZM163.266 24.2891L167.094 24.2891L167.094 47.5117H167.172L181.781 24.2891L186.215 24.2891L186.215 53L182.367 53L182.367 29.6406H182.289L167.699 53L163.266 53L163.266 24.2891ZM192.172 24.2891L197.68 24.2891L205.805 48.4492H205.883L214.008 24.2891L219.516 24.2891L219.516 53L215.922 53L215.922 28.8398H215.844L207.758 53L203.93 53L195.844 28.8398H195.766L195.766 53L192.172 53L192.172 24.2891Z" fill="black"/>
</svg>
