<svg width="587" height="235" viewBox="0 0 587 235" fill="none" xmlns="http://www.w3.org/2000/svg">
<path d="M587 117.059L516.435 131.779L552.681 173.372L480.999 158.95L485.661 206.961L425.087 178.32L410.527 225.633L360.853 189.36L332.707 234.114L293.504 192.903L254.3 234.114L226.154 189.36L176.48 225.633L161.913 178.32L101.346 206.961L106.001 158.95L34.3192 173.367L70.5721 131.779L0 117.059L70.5721 102.334L34.3192 60.7464L106.001 75.1634L101.346 27.1525L161.913 55.7937L176.48 8.48574L226.147 44.7581L254.293 0L293.504 41.2158L332.707 0L360.853 44.7581L410.52 8.48115L425.087 55.7937L485.661 27.1525L480.999 75.1634L552.688 60.7464L516.435 102.334L587 117.059Z" fill="#FFFB00"/>
</svg>
