<svg width="284" height="75" viewBox="0 0 284 75" fill="none" xmlns="http://www.w3.org/2000/svg">
<rect width="284" height="75" fill="#FDF12A"/>
<path d="M80.6445 27.6484L70.3906 27.6484C70.3906 29.875 70.3646 32.0625 70.3125 34.2109C70.2604 36.3594 70.1497 38.3971 69.9805 40.3242C69.8112 42.2383 69.5573 44.0026 69.2188 45.6172C68.8802 47.2318 68.418 48.6315 67.832 49.8164C67.2461 50.9883 66.5169 51.9062 65.6445 52.5703C64.7852 53.2214 63.737 53.5469 62.5 53.5469C62.1224 53.5469 61.8034 53.5143 61.543 53.4492C61.2956 53.3841 61.0221 53.3125 60.7227 53.2344L60.7227 49.6797C60.8659 49.7448 61.0417 49.8034 61.25 49.8555C61.4714 49.8945 61.7839 49.9141 62.1875 49.9141C62.7865 49.9141 63.3008 49.6992 63.7305 49.2695C64.1732 48.8268 64.5508 48.2148 64.8633 47.4336C65.1758 46.6523 65.4297 45.7279 65.625 44.6602C65.8333 43.5794 65.9961 42.4076 66.1133 41.1445C66.2435 39.8815 66.3346 38.5469 66.3867 37.1406C66.4518 35.7344 66.4974 34.3086 66.5234 32.8633C66.5625 31.4049 66.582 29.9531 66.582 28.5078C66.5951 27.0495 66.6146 25.6432 66.6406 24.2891L84.4922 24.2891L84.4922 53L80.6445 53L80.6445 27.6484ZM90.4297 24.2891L111.387 24.2891L111.387 27.6484L94.2578 27.6484V36.5156L110.059 36.5156L110.059 39.875L94.2578 39.875L94.2578 49.6406L111.66 49.6406V53L90.4297 53L90.4297 24.2891ZM114.707 24.2891L138.066 24.2891V27.6484L128.301 27.6484L128.301 53H124.453L124.453 27.6484L114.707 27.6484L114.707 24.2891ZM156.758 41.1641L152.383 28.3906L147.539 41.1641L156.758 41.1641ZM139.297 53L150.059 23.8398L154.727 23.8398L165.137 53L160.879 53L157.852 44.2109L146.563 44.2109L143.359 53L139.297 53ZM168.711 24.2891L189.668 24.2891V27.6484L172.539 27.6484L172.539 36.5156L188.34 36.5156V39.875L172.539 39.875V49.6406L189.941 49.6406V53L168.711 53L168.711 24.2891ZM195.391 24.2891L200.898 24.2891L209.023 48.4492H209.102L217.227 24.2891L222.734 24.2891L222.734 53L219.141 53L219.141 28.8398H219.063L210.977 53H207.148L199.063 28.8398H198.984L198.984 53L195.391 53L195.391 24.2891Z" fill="black"/>
</svg>
