<svg width="1986" height="98" viewBox="0 0 1986 98" fill="none" xmlns="http://www.w3.org/2000/svg">
<rect y="3" width="1986" height="89" fill="white"/>
<path d="M62.7954 47.4946C62.7954 50.1232 62.5326 52.7518 62.0068 55.3804C61.4811 57.9813 60.6787 60.4715 59.5996 62.8511C58.5205 65.203 57.1647 67.4027 55.5322 69.4502C53.9274 71.4701 52.0182 73.2409 49.8047 74.7627C47.5911 76.2568 45.0871 77.4189 42.2925 78.249C39.5256 79.1068 36.4543 79.5356 33.0786 79.5356C29.703 79.5356 26.6178 79.1068 23.8232 78.249C21.0286 77.4189 18.5246 76.2568 16.311 74.7627C14.1252 73.2409 12.216 71.4701 10.5835 69.4502C8.95101 67.4027 7.59521 65.203 6.51611 62.8511C5.43701 60.4715 4.6346 57.9813 4.10889 55.3804C3.58317 52.7518 3.32031 50.1232 3.32031 47.4946C3.32031 42.7632 3.98438 38.4329 5.3125 34.5039C6.66829 30.5749 8.61898 27.1992 11.1646 24.377C13.7101 21.5547 16.8229 19.3688 20.5029 17.8193C24.1829 16.2422 28.3748 15.4536 33.0786 15.4536C37.7547 15.4536 41.9328 16.2422 45.6128 17.8193C49.3205 19.3688 52.4333 21.5547 54.9512 24.377C57.4967 27.1992 59.4336 30.5749 60.7617 34.5039C62.1175 38.4329 62.7954 42.7632 62.7954 47.4946ZM54.6606 47.4946C54.6606 43.87 54.1764 40.5358 53.208 37.4922C52.2396 34.4209 50.8285 31.7923 48.9746 29.6064C47.1484 27.3929 44.8934 25.6774 42.2095 24.46C39.5256 23.2148 36.4819 22.5923 33.0786 22.5923C29.6476 22.5923 26.5902 23.2148 23.9062 24.46C21.2223 25.6774 18.9535 27.3929 17.0996 29.6064C15.2734 31.7923 13.8761 34.4209 12.9077 37.4922C11.9393 40.5358 11.4551 43.87 11.4551 47.4946C11.4551 51.2023 11.8978 54.5918 12.7832 57.6631C13.6686 60.7067 15.0106 63.3215 16.8091 65.5073C18.6076 67.6932 20.8488 69.3949 23.5327 70.6123C26.2443 71.8021 29.4263 72.397 33.0786 72.397C36.7033 72.397 39.8714 71.8021 42.583 70.6123C45.2946 69.3949 47.5358 67.6932 49.3066 65.5073C51.1051 63.3215 52.4471 60.7067 53.3325 57.6631C54.2179 54.5918 54.6606 51.2023 54.6606 47.4946ZM77.6123 47.4116C77.6123 51.23 78.0965 54.6886 79.0649 57.7876C80.0334 60.8589 81.3892 63.4736 83.1323 65.6318C84.9032 67.79 87.0199 69.464 89.4824 70.6538C91.9727 71.8159 94.7119 72.397 97.7002 72.397C100.301 72.397 102.625 71.9266 104.673 70.9858C106.748 70.0451 108.533 68.8138 110.027 67.292C111.521 65.7425 112.725 63.9993 113.638 62.0625C114.551 60.1257 115.16 58.1611 115.464 56.1689H123.35C123.184 57.9398 122.796 59.7521 122.188 61.606C121.606 63.4321 120.804 65.2168 119.78 66.96C118.784 68.6755 117.581 70.3079 116.169 71.8574C114.758 73.3792 113.126 74.7074 111.272 75.8418C109.446 76.9762 107.398 77.8755 105.129 78.5396C102.861 79.2036 100.384 79.5356 97.7002 79.5356C95.8464 79.5356 93.8542 79.342 91.7236 78.9546C89.6208 78.5672 87.5179 77.917 85.415 77.0039C83.3398 76.0908 81.3338 74.8734 79.397 73.3516C77.4878 71.8021 75.8 69.8652 74.3335 67.541C72.867 65.2168 71.6911 62.4775 70.8057 59.3232C69.9202 56.1413 69.4775 52.4474 69.4775 48.2417C69.4775 44.119 69.8649 40.439 70.6396 37.2017C71.4421 33.9644 72.5212 31.1421 73.877 28.7349C75.2604 26.3 76.8652 24.2386 78.6914 22.5508C80.5452 20.863 82.5236 19.4933 84.6265 18.4419C86.7293 17.3905 88.9152 16.6296 91.1841 16.1592C93.453 15.6888 95.708 15.4536 97.9492 15.4536C100.716 15.4536 103.234 15.7441 105.503 16.3252C107.799 16.8786 109.847 17.6533 111.646 18.6494C113.472 19.6178 115.063 20.7523 116.418 22.0527C117.774 23.3532 118.909 24.7367 119.822 26.2031C120.763 27.6419 121.482 29.1222 121.98 30.644C122.506 32.1659 122.824 33.6462 122.935 35.085H114.966C114.44 33.1204 113.665 31.3634 112.642 29.814C111.618 28.2645 110.373 26.964 108.906 25.9126C107.467 24.8335 105.835 24.0173 104.009 23.4639C102.21 22.8828 100.273 22.5923 98.1982 22.5923C95.0716 22.5923 92.2355 23.1733 89.6899 24.3354C87.172 25.4976 85.0138 27.1577 83.2153 29.3159C81.4168 31.4741 80.0334 34.0889 79.0649 37.1602C78.0965 40.2038 77.6123 43.6209 77.6123 47.4116ZM128.787 16.9893H178.425V24.1279H157.673V78H149.497V24.1279H128.787V16.9893ZM242.341 47.4946C242.341 50.1232 242.078 52.7518 241.553 55.3804C241.027 57.9813 240.225 60.4715 239.146 62.8511C238.066 65.203 236.711 67.4027 235.078 69.4502C233.473 71.4701 231.564 73.2409 229.351 74.7627C227.137 76.2568 224.633 77.4189 221.838 78.249C219.071 79.1068 216 79.5356 212.625 79.5356C209.249 79.5356 206.164 79.1068 203.369 78.249C200.575 77.4189 198.07 76.2568 195.857 74.7627C193.671 73.2409 191.762 71.4701 190.129 69.4502C188.497 67.4027 187.141 65.203 186.062 62.8511C184.983 60.4715 184.181 57.9813 183.655 55.3804C183.129 52.7518 182.866 50.1232 182.866 47.4946C182.866 42.7632 183.53 38.4329 184.858 34.5039C186.214 30.5749 188.165 27.1992 190.71 24.377C193.256 21.5547 196.369 19.3688 200.049 17.8193C203.729 16.2422 207.921 15.4536 212.625 15.4536C217.301 15.4536 221.479 16.2422 225.159 17.8193C228.866 19.3688 231.979 21.5547 234.497 24.377C237.043 27.1992 238.979 30.5749 240.308 34.5039C241.663 38.4329 242.341 42.7632 242.341 47.4946ZM234.207 47.4946C234.207 43.87 233.722 40.5358 232.754 37.4922C231.785 34.4209 230.374 31.7923 228.521 29.6064C226.694 27.3929 224.439 25.6774 221.755 24.46C219.071 23.2148 216.028 22.5923 212.625 22.5923C209.194 22.5923 206.136 23.2148 203.452 24.46C200.768 25.6774 198.499 27.3929 196.646 29.6064C194.819 31.7923 193.422 34.4209 192.454 37.4922C191.485 40.5358 191.001 43.87 191.001 47.4946C191.001 51.2023 191.444 54.5918 192.329 57.6631C193.215 60.7067 194.556 63.3215 196.355 65.5073C198.153 67.6932 200.395 69.3949 203.079 70.6123C205.79 71.8021 208.972 72.397 212.625 72.397C216.249 72.397 219.417 71.8021 222.129 70.6123C224.84 69.3949 227.082 67.6932 228.853 65.5073C230.651 63.3215 231.993 60.7067 232.878 57.6631C233.764 54.5918 234.207 51.2023 234.207 47.4946ZM276.831 45.5439C281.147 45.5439 284.26 44.6309 286.169 42.8047C288.079 40.9785 289.033 38.3223 289.033 34.8359C289.033 31.3496 288.079 28.6934 286.169 26.8672C284.26 25.041 281.147 24.1279 276.831 24.1279H260.146V45.5439H276.831ZM252.012 16.9893H277.661C281.009 16.9893 283.901 17.4181 286.335 18.2759C288.798 19.1336 290.832 20.3511 292.437 21.9282C294.041 23.4777 295.231 25.3454 296.006 27.5312C296.808 29.7171 297.209 32.152 297.209 34.8359C297.209 37.5199 296.808 39.9548 296.006 42.1406C295.231 44.3265 294.041 46.208 292.437 47.7852C290.832 49.3346 288.798 50.5382 286.335 51.396C283.901 52.2537 281.009 52.6826 277.661 52.6826H260.146V78H252.012V16.9893ZM365.193 47.4946C365.193 50.1232 364.93 52.7518 364.404 55.3804C363.879 57.9813 363.076 60.4715 361.997 62.8511C360.918 65.203 359.562 67.4027 357.93 69.4502C356.325 71.4701 354.416 73.2409 352.202 74.7627C349.989 76.2568 347.485 77.4189 344.69 78.249C341.923 79.1068 338.852 79.5356 335.476 79.5356C332.1 79.5356 329.015 79.1068 326.221 78.249C323.426 77.4189 320.922 76.2568 318.708 74.7627C316.523 73.2409 314.613 71.4701 312.981 69.4502C311.348 67.4027 309.993 65.203 308.914 62.8511C307.834 60.4715 307.032 57.9813 306.506 55.3804C305.981 52.7518 305.718 50.1232 305.718 47.4946C305.718 42.7632 306.382 38.4329 307.71 34.5039C309.066 30.5749 311.016 27.1992 313.562 24.377C316.108 21.5547 319.22 19.3688 322.9 17.8193C326.58 16.2422 330.772 15.4536 335.476 15.4536C340.152 15.4536 344.33 16.2422 348.01 17.8193C351.718 19.3688 354.831 21.5547 357.349 24.377C359.894 27.1992 361.831 30.5749 363.159 34.5039C364.515 38.4329 365.193 42.7632 365.193 47.4946ZM357.058 47.4946C357.058 43.87 356.574 40.5358 355.605 37.4922C354.637 34.4209 353.226 31.7923 351.372 29.6064C349.546 27.3929 347.291 25.6774 344.607 24.46C341.923 23.2148 338.879 22.5923 335.476 22.5923C332.045 22.5923 328.988 23.2148 326.304 24.46C323.62 25.6774 321.351 27.3929 319.497 29.6064C317.671 31.7923 316.274 34.4209 315.305 37.4922C314.337 40.5358 313.853 43.87 313.853 47.4946C313.853 51.2023 314.295 54.5918 315.181 57.6631C316.066 60.7067 317.408 63.3215 319.207 65.5073C321.005 67.6932 323.246 69.3949 325.93 70.6123C328.642 71.8021 331.824 72.397 335.476 72.397C339.101 72.397 342.269 71.8021 344.98 70.6123C347.692 69.3949 349.933 67.6932 351.704 65.5073C353.503 63.3215 354.845 60.7067 355.73 57.6631C356.615 54.5918 357.058 51.2023 357.058 47.4946ZM414.79 43.1367H420.269L441.726 16.9893H452.476L427.905 46.042L452.476 78H441.311L420.269 50.0264H414.79V78H406.655V50.0264H401.177L380.051 78H368.97L394.038 46.374L369.343 16.9893H379.885L401.177 43.1367H406.655V16.9893H414.79V43.1367ZM459.199 16.9893H467.334V42.1406H499.79V16.9893H507.966V78H499.79V49.2793H467.334V78H459.199V16.9893ZM577.112 47.4946C577.112 50.1232 576.849 52.7518 576.323 55.3804C575.798 57.9813 574.995 60.4715 573.916 62.8511C572.837 65.203 571.481 67.4027 569.849 69.4502C568.244 71.4701 566.335 73.2409 564.121 74.7627C561.908 76.2568 559.403 77.4189 556.609 78.249C553.842 79.1068 550.771 79.5356 547.395 79.5356C544.019 79.5356 540.934 79.1068 538.14 78.249C535.345 77.4189 532.841 76.2568 530.627 74.7627C528.442 73.2409 526.532 71.4701 524.9 69.4502C523.267 67.4027 521.912 65.203 520.833 62.8511C519.753 60.4715 518.951 57.9813 518.425 55.3804C517.9 52.7518 517.637 50.1232 517.637 47.4946C517.637 42.7632 518.301 38.4329 519.629 34.5039C520.985 30.5749 522.935 27.1992 525.481 24.377C528.027 21.5547 531.139 19.3688 534.819 17.8193C538.499 16.2422 542.691 15.4536 547.395 15.4536C552.071 15.4536 556.249 16.2422 559.929 17.8193C563.637 19.3688 566.75 21.5547 569.268 24.377C571.813 27.1992 573.75 30.5749 575.078 34.5039C576.434 38.4329 577.112 42.7632 577.112 47.4946ZM568.977 47.4946C568.977 43.87 568.493 40.5358 567.524 37.4922C566.556 34.4209 565.145 31.7923 563.291 29.6064C561.465 27.3929 559.21 25.6774 556.526 24.46C553.842 23.2148 550.798 22.5923 547.395 22.5923C543.964 22.5923 540.907 23.2148 538.223 24.46C535.539 25.6774 533.27 27.3929 531.416 29.6064C529.59 31.7923 528.193 34.4209 527.224 37.4922C526.256 40.5358 525.771 43.87 525.771 47.4946C525.771 51.2023 526.214 54.5918 527.1 57.6631C527.985 60.7067 529.327 63.3215 531.125 65.5073C532.924 67.6932 535.165 69.3949 537.849 70.6123C540.561 71.8021 543.743 72.397 547.395 72.397C551.02 72.397 554.188 71.8021 556.899 70.6123C559.611 69.3949 561.852 67.6932 563.623 65.5073C565.422 63.3215 566.764 60.7067 567.649 57.6631C568.534 54.5918 568.977 51.2023 568.977 47.4946ZM610.439 16.9893H618.574V66.3374H618.74L649.785 16.9893H659.207V78H651.03V28.3613H650.864L619.861 78H610.439V16.9893ZM667.092 91.0737V70.8613H672.612C673.193 69.5332 673.733 68.1912 674.231 66.8354C674.729 65.452 675.186 63.9025 675.601 62.187C676.043 60.4438 676.444 58.4517 676.804 56.2104C677.192 53.9692 677.551 51.313 677.883 48.2417C678.271 45.0044 678.575 41.8224 678.796 38.6958C679.018 35.5415 679.184 32.5947 679.294 29.8555C679.433 27.1162 679.516 24.6398 679.543 22.4263C679.599 20.2127 679.64 18.4004 679.668 16.9893H718.018V70.8613H724.907V91.0737H717.271V78H674.729V91.0737H667.092ZM687.305 24.1279C687.305 28.0846 687.139 32.0275 686.807 35.9565C686.502 39.8856 686.129 43.8423 685.686 47.8267C685.382 50.981 685.063 53.6649 684.731 55.8784C684.427 58.0643 684.095 60.015 683.735 61.7305C683.403 63.4183 683.016 64.9816 682.573 66.4204C682.158 67.8315 681.674 69.3118 681.121 70.8613H709.634V24.1279H687.305ZM737.566 69.8237C737.87 70.0728 738.271 70.3356 738.77 70.6123C739.268 70.8613 739.807 71.0965 740.388 71.3179C740.969 71.5116 741.564 71.6776 742.173 71.8159C742.809 71.9266 743.418 71.9819 743.999 71.9819C745.244 71.9819 746.309 71.8159 747.195 71.4839C748.108 71.1242 748.883 70.6676 749.519 70.1143C750.183 69.5332 750.723 68.883 751.138 68.1636C751.553 67.4165 751.885 66.6418 752.134 65.8394L727.107 16.9893H736.611L756.782 57.4141L772.056 16.9893H781.27L762.095 62.6021C760.767 65.6457 759.521 68.2466 758.359 70.4048C757.225 72.5353 755.98 74.2785 754.624 75.6343C753.296 76.9901 751.774 77.9723 750.059 78.5811C748.371 79.2174 746.323 79.5356 743.916 79.5356C742.671 79.5356 741.453 79.3696 740.264 79.0376C739.074 78.7056 738.161 78.2767 737.524 77.751L737.566 69.8237ZM783.054 16.9893H832.693V24.1279H811.941V78H803.765V24.1279H783.054V16.9893ZM868.926 47.4116C868.926 51.23 869.41 54.6886 870.378 57.7876C871.347 60.8589 872.703 63.4736 874.446 65.6318C876.217 67.79 878.333 69.464 880.796 70.6538C883.286 71.8159 886.025 72.397 889.014 72.397C891.615 72.397 893.939 71.9266 895.986 70.9858C898.062 70.0451 899.846 68.8138 901.34 67.292C902.834 65.7425 904.038 63.9993 904.951 62.0625C905.864 60.1257 906.473 58.1611 906.777 56.1689H914.663C914.497 57.9398 914.11 59.7521 913.501 61.606C912.92 63.4321 912.118 65.2168 911.094 66.96C910.098 68.6755 908.894 70.3079 907.483 71.8574C906.072 73.3792 904.439 74.7074 902.585 75.8418C900.759 76.9762 898.712 77.8755 896.443 78.5396C894.174 79.2036 891.698 79.5356 889.014 79.5356C887.16 79.5356 885.168 79.342 883.037 78.9546C880.934 78.5672 878.831 77.917 876.729 77.0039C874.653 76.0908 872.647 74.8734 870.71 73.3516C868.801 71.8021 867.113 69.8652 865.647 67.541C864.181 65.2168 863.005 62.4775 862.119 59.3232C861.234 56.1413 860.791 52.4474 860.791 48.2417C860.791 44.119 861.178 40.439 861.953 37.2017C862.756 33.9644 863.835 31.1421 865.19 28.7349C866.574 26.3 868.179 24.2386 870.005 22.5508C871.859 20.863 873.837 19.4933 875.94 18.4419C878.043 17.3905 880.229 16.6296 882.498 16.1592C884.766 15.6888 887.021 15.4536 889.263 15.4536C892.03 15.4536 894.548 15.7441 896.816 16.3252C899.113 16.8786 901.16 17.6533 902.959 18.6494C904.785 19.6178 906.376 20.7523 907.732 22.0527C909.088 23.3532 910.222 24.7367 911.135 26.2031C912.076 27.6419 912.795 29.1222 913.293 30.644C913.819 32.1659 914.137 33.6462 914.248 35.085H906.279C905.754 33.1204 904.979 31.3634 903.955 29.814C902.931 28.2645 901.686 26.964 900.22 25.9126C898.781 24.8335 897.148 24.0173 895.322 23.4639C893.524 22.8828 891.587 22.5923 889.512 22.5923C886.385 22.5923 883.549 23.1733 881.003 24.3354C878.486 25.4976 876.327 27.1577 874.529 29.3159C872.73 31.4741 871.347 34.0889 870.378 37.1602C869.41 40.2038 868.926 43.6209 868.926 47.4116ZM920.1 16.9893H969.739V24.1279H948.987V78H940.811V24.1279H920.1V16.9893ZM1001.99 45.5439C1006.3 45.5439 1009.42 44.6309 1011.33 42.8047C1013.23 40.9785 1014.19 38.3223 1014.19 34.8359C1014.19 31.3496 1013.23 28.6934 1011.33 26.8672C1009.42 25.041 1006.3 24.1279 1001.99 24.1279H985.303V45.5439H1001.99ZM977.168 16.9893H1002.82C1006.17 16.9893 1009.06 17.4181 1011.49 18.2759C1013.95 19.1336 1015.99 20.3511 1017.59 21.9282C1019.2 23.4777 1020.39 25.3454 1021.16 27.5312C1021.96 29.7171 1022.37 32.152 1022.37 34.8359C1022.37 37.5199 1021.96 39.9548 1021.16 42.1406C1020.39 44.3265 1019.2 46.208 1017.59 47.7852C1015.99 49.3346 1013.95 50.5382 1011.49 51.396C1009.06 52.2537 1006.17 52.6826 1002.82 52.6826H985.303V78H977.168V16.9893ZM1090.35 47.4946C1090.35 50.1232 1090.09 52.7518 1089.56 55.3804C1089.03 57.9813 1088.23 60.4715 1087.15 62.8511C1086.07 65.203 1084.72 67.4027 1083.09 69.4502C1081.48 71.4701 1079.57 73.2409 1077.36 74.7627C1075.14 76.2568 1072.64 77.4189 1069.85 78.249C1067.08 79.1068 1064.01 79.5356 1060.63 79.5356C1057.26 79.5356 1054.17 79.1068 1051.38 78.249C1048.58 77.4189 1046.08 76.2568 1043.86 74.7627C1041.68 73.2409 1039.77 71.4701 1038.14 69.4502C1036.5 67.4027 1035.15 65.203 1034.07 62.8511C1032.99 60.4715 1032.19 57.9813 1031.66 55.3804C1031.14 52.7518 1030.87 50.1232 1030.87 47.4946C1030.87 42.7632 1031.54 38.4329 1032.87 34.5039C1034.22 30.5749 1036.17 27.1992 1038.72 24.377C1041.26 21.5547 1044.38 19.3688 1048.06 17.8193C1051.74 16.2422 1055.93 15.4536 1060.63 15.4536C1065.31 15.4536 1069.49 16.2422 1073.17 17.8193C1076.87 19.3688 1079.99 21.5547 1082.5 24.377C1085.05 27.1992 1086.99 30.5749 1088.32 34.5039C1089.67 38.4329 1090.35 42.7632 1090.35 47.4946ZM1082.21 47.4946C1082.21 43.87 1081.73 40.5358 1080.76 37.4922C1079.79 34.4209 1078.38 31.7923 1076.53 29.6064C1074.7 27.3929 1072.45 25.6774 1069.76 24.46C1067.08 23.2148 1064.04 22.5923 1060.63 22.5923C1057.2 22.5923 1054.14 23.2148 1051.46 24.46C1048.78 25.6774 1046.51 27.3929 1044.65 29.6064C1042.83 31.7923 1041.43 34.4209 1040.46 37.4922C1039.49 40.5358 1039.01 43.87 1039.01 47.4946C1039.01 51.2023 1039.45 54.5918 1040.34 57.6631C1041.22 60.7067 1042.56 63.3215 1044.36 65.5073C1046.16 67.6932 1048.4 69.3949 1051.09 70.6123C1053.8 71.8021 1056.98 72.397 1060.63 72.397C1064.26 72.397 1067.43 71.8021 1070.14 70.6123C1072.85 69.3949 1075.09 67.6932 1076.86 65.5073C1078.66 63.3215 1080 60.7067 1080.89 57.6631C1081.77 54.5918 1082.21 51.2023 1082.21 47.4946ZM1100.02 16.9893H1108.15V66.3374H1108.32L1139.37 16.9893H1148.79V78H1140.61V28.3613H1140.44L1109.44 78H1100.02V16.9893ZM1156.34 16.9893H1205.98V24.1279H1185.23V78H1177.05V24.1279H1156.34V16.9893ZM1213.41 16.9893H1257.94V24.1279H1221.54V42.9707H1255.12V50.1094H1221.54V70.8613H1258.52V78H1213.41V16.9893ZM1307.66 24.1279H1285.87C1285.87 28.8594 1285.82 33.5078 1285.71 38.0732C1285.6 42.6387 1285.36 46.9689 1285 51.064C1284.64 55.1313 1284.1 58.8805 1283.38 62.3115C1282.66 65.7425 1281.68 68.717 1280.44 71.2349C1279.19 73.7251 1277.64 75.6758 1275.79 77.0869C1273.96 78.4704 1271.74 79.1621 1269.11 79.1621C1268.3 79.1621 1267.63 79.0929 1267.07 78.9546C1266.55 78.8162 1265.97 78.6641 1265.33 78.498V70.9443C1265.63 71.0827 1266.01 71.2072 1266.45 71.3179C1266.92 71.4009 1267.58 71.4424 1268.44 71.4424C1269.72 71.4424 1270.81 70.9858 1271.72 70.0728C1272.66 69.132 1273.46 67.8315 1274.13 66.1714C1274.79 64.5112 1275.33 62.5467 1275.75 60.2778C1276.19 57.9813 1276.54 55.491 1276.78 52.8071C1277.06 50.1232 1277.26 47.2871 1277.37 44.2988C1277.5 41.3105 1277.6 38.2808 1277.66 35.2095C1277.74 32.1105 1277.78 29.0254 1277.78 25.9541C1277.81 22.8551 1277.85 19.8669 1277.91 16.9893H1315.84V78H1307.66V24.1279ZM1328.46 16.9893H1336.63V42.1406H1352.86C1356.51 42.1406 1359.68 42.5557 1362.37 43.3857C1365.05 44.2158 1367.26 45.4056 1369.01 46.9551C1370.75 48.5046 1372.05 50.3861 1372.91 52.5996C1373.77 54.8132 1374.19 57.3034 1374.19 60.0703C1374.19 62.7819 1373.77 65.2445 1372.91 67.458C1372.05 69.6439 1370.79 71.5254 1369.13 73.1025C1367.5 74.652 1365.48 75.8556 1363.07 76.7134C1360.69 77.5711 1357.97 78 1354.9 78H1328.46V16.9893ZM1353.82 70.8613C1355.48 70.8613 1357.01 70.6815 1358.42 70.3218C1359.86 69.9621 1361.11 69.3672 1362.16 68.5371C1363.21 67.6794 1364.03 66.5726 1364.61 65.2168C1365.22 63.8333 1365.52 62.1178 1365.52 60.0703C1365.52 58.0505 1365.2 56.3488 1364.57 54.9653C1363.96 53.5819 1363.07 52.4751 1361.91 51.645C1360.75 50.7873 1359.34 50.1785 1357.68 49.8188C1356.02 49.4591 1354.13 49.2793 1352.03 49.2793H1336.63V70.8613H1353.82ZM1383.82 16.9893H1391.96V42.1406H1424.41V16.9893H1432.59V78H1424.41V49.2793H1391.96V78H1383.82V16.9893ZM1445.25 16.9893H1453.43V42.1406H1469.65C1473.31 42.1406 1476.47 42.5557 1479.16 43.3857C1481.84 44.2158 1484.06 45.4056 1485.8 46.9551C1487.54 48.5046 1488.84 50.3861 1489.7 52.5996C1490.56 54.8132 1490.99 57.3034 1490.99 60.0703C1490.99 62.7819 1490.56 65.2445 1489.7 67.458C1488.84 69.6439 1487.58 71.5254 1485.92 73.1025C1484.29 74.652 1482.27 75.8556 1479.86 76.7134C1477.48 77.5711 1474.76 78 1471.69 78H1445.25V16.9893ZM1470.61 70.8613C1472.27 70.8613 1473.8 70.6815 1475.21 70.3218C1476.65 69.9621 1477.9 69.3672 1478.95 68.5371C1480 67.6794 1480.82 66.5726 1481.4 65.2168C1482.01 63.8333 1482.31 62.1178 1482.31 60.0703C1482.31 58.0505 1481.99 56.3488 1481.36 54.9653C1480.75 53.5819 1479.86 52.4751 1478.7 51.645C1477.54 50.7873 1476.13 50.1785 1474.47 49.8188C1472.81 49.4591 1470.93 49.2793 1468.82 49.2793H1453.43V70.8613H1470.61ZM1499.25 16.9893H1507.38V78H1499.25V16.9893ZM1520.04 16.9893H1564.57V24.1279H1528.17V42.9707H1561.75V50.1094H1528.17V70.8613H1565.15V78H1520.04V16.9893ZM1625.21 45.5439C1629.53 45.5439 1632.64 44.6309 1634.55 42.8047C1636.46 40.9785 1637.41 38.3223 1637.41 34.8359C1637.41 31.3496 1636.46 28.6934 1634.55 26.8672C1632.64 25.041 1629.53 24.1279 1625.21 24.1279H1608.53V45.5439H1625.21ZM1600.39 16.9893H1626.04C1629.39 16.9893 1632.28 17.4181 1634.71 18.2759C1637.18 19.1336 1639.21 20.3511 1640.82 21.9282C1642.42 23.4777 1643.61 25.3454 1644.38 27.5312C1645.19 29.7171 1645.59 32.152 1645.59 34.8359C1645.59 37.5199 1645.19 39.9548 1644.38 42.1406C1643.61 44.3265 1642.42 46.208 1640.82 47.7852C1639.21 49.3346 1637.18 50.5382 1634.71 51.396C1632.28 52.2537 1629.39 52.6826 1626.04 52.6826H1608.53V78H1600.39V16.9893ZM1689.38 52.8486L1680.08 25.7051L1669.79 52.8486H1689.38ZM1652.27 78L1675.14 16.0347H1685.06L1707.18 78H1698.13L1691.7 59.3232H1667.71L1660.9 78H1652.27ZM1714.78 16.9893H1756.53V24.1279H1722.91V42.1406H1739.93C1743.5 42.1406 1746.6 42.5557 1749.22 43.3857C1751.85 44.2158 1754.04 45.4056 1755.78 46.9551C1757.52 48.5046 1758.81 50.3861 1759.64 52.5996C1760.5 54.8132 1760.93 57.3034 1760.93 60.0703C1760.93 62.7819 1760.5 65.2445 1759.64 67.458C1758.78 69.6439 1757.52 71.5254 1755.86 73.1025C1754.23 74.652 1752.21 75.8556 1749.8 76.7134C1747.43 77.5711 1744.7 78 1741.63 78H1714.78V16.9893ZM1722.91 70.8613H1740.55C1742.21 70.8613 1743.75 70.6815 1745.16 70.3218C1746.6 69.9621 1747.84 69.3672 1748.89 68.5371C1749.94 67.6794 1750.76 66.5726 1751.34 65.2168C1751.95 63.8333 1752.25 62.1178 1752.25 60.0703C1752.25 58.0505 1751.94 56.3488 1751.3 54.9653C1750.69 53.5819 1749.8 52.4751 1748.64 51.645C1747.48 50.7873 1746.07 50.1785 1744.41 49.8188C1742.75 49.4591 1740.87 49.2793 1738.76 49.2793H1722.91V70.8613ZM1827.54 47.4946C1827.54 50.1232 1827.28 52.7518 1826.75 55.3804C1826.23 57.9813 1825.42 60.4715 1824.35 62.8511C1823.27 65.203 1821.91 67.4027 1820.28 69.4502C1818.67 71.4701 1816.76 73.2409 1814.55 74.7627C1812.34 76.2568 1809.83 77.4189 1807.04 78.249C1804.27 79.1068 1801.2 79.5356 1797.82 79.5356C1794.45 79.5356 1791.36 79.1068 1788.57 78.249C1785.77 77.4189 1783.27 76.2568 1781.06 74.7627C1778.87 73.2409 1776.96 71.4701 1775.33 69.4502C1773.7 67.4027 1772.34 65.203 1771.26 62.8511C1770.18 60.4715 1769.38 57.9813 1768.85 55.3804C1768.33 52.7518 1768.07 50.1232 1768.07 47.4946C1768.07 42.7632 1768.73 38.4329 1770.06 34.5039C1771.41 30.5749 1773.37 27.1992 1775.91 24.377C1778.46 21.5547 1781.57 19.3688 1785.25 17.8193C1788.93 16.2422 1793.12 15.4536 1797.82 15.4536C1802.5 15.4536 1806.68 16.2422 1810.36 17.8193C1814.07 19.3688 1817.18 21.5547 1819.7 24.377C1822.24 27.1992 1824.18 30.5749 1825.51 34.5039C1826.86 38.4329 1827.54 42.7632 1827.54 47.4946ZM1819.41 47.4946C1819.41 43.87 1818.92 40.5358 1817.95 37.4922C1816.99 34.4209 1815.57 31.7923 1813.72 29.6064C1811.89 27.3929 1809.64 25.6774 1806.96 24.46C1804.27 23.2148 1801.23 22.5923 1797.82 22.5923C1794.39 22.5923 1791.34 23.2148 1788.65 24.46C1785.97 25.6774 1783.7 27.3929 1781.85 29.6064C1780.02 31.7923 1778.62 34.4209 1777.65 37.4922C1776.69 40.5358 1776.2 43.87 1776.2 47.4946C1776.2 51.2023 1776.64 54.5918 1777.53 57.6631C1778.41 60.7067 1779.76 63.3215 1781.56 65.5073C1783.35 67.6932 1785.59 69.3949 1788.28 70.6123C1790.99 71.8021 1794.17 72.397 1797.82 72.397C1801.45 72.397 1804.62 71.8021 1807.33 70.6123C1810.04 69.3949 1812.28 67.6932 1814.05 65.5073C1815.85 63.3215 1817.19 60.7067 1818.08 57.6631C1818.96 54.5918 1819.41 51.2023 1819.41 47.4946ZM1832.11 16.9893H1881.75V24.1279H1860.99V78H1852.82V24.1279H1832.11V16.9893ZM1889.17 16.9893H1897.35V42.1406H1913.58C1917.23 42.1406 1920.4 42.5557 1923.08 43.3857C1925.77 44.2158 1927.98 45.4056 1929.72 46.9551C1931.47 48.5046 1932.77 50.3861 1933.63 52.5996C1934.48 54.8132 1934.91 57.3034 1934.91 60.0703C1934.91 62.7819 1934.48 65.2445 1933.63 67.458C1932.77 69.6439 1931.51 71.5254 1929.85 73.1025C1928.22 74.652 1926.2 75.8556 1923.79 76.7134C1921.41 77.5711 1918.68 78 1915.61 78H1889.17V16.9893ZM1914.53 70.8613C1916.19 70.8613 1917.73 70.6815 1919.14 70.3218C1920.58 69.9621 1921.82 69.3672 1922.88 68.5371C1923.93 67.6794 1924.74 66.5726 1925.32 65.2168C1925.93 63.8333 1926.24 62.1178 1926.24 60.0703C1926.24 58.0505 1925.92 56.3488 1925.28 54.9653C1924.67 53.5819 1923.79 52.4751 1922.63 51.645C1921.46 50.7873 1920.05 50.1785 1918.39 49.8188C1916.73 49.4591 1914.85 49.2793 1912.75 49.2793H1897.35V70.8613H1914.53ZM1943.17 16.9893H1951.31V78H1943.17V16.9893Z" fill="black"/>
</svg>
