<svg width="284" height="75" viewBox="0 0 284 75" fill="none" xmlns="http://www.w3.org/2000/svg">
<rect width="284" height="75" fill="#FDF12A"/>
<path d="M41.9688 22.2891L64.918 22.2891L64.918 51L61.0703 51L61.0703 25.6484L45.7969 25.6484L45.7969 51L41.9688 51L41.9688 22.2891ZM97.457 36.6445C97.457 37.8815 97.3333 39.1185 97.0859 40.3555C96.8385 41.5794 96.4609 42.7513 95.9531 43.8711C95.4453 44.9779 94.8073 46.013 94.0391 46.9766C93.2839 47.9271 92.3854 48.7604 91.3438 49.4766C90.3021 50.1797 89.1237 50.7266 87.8086 51.1172C86.5065 51.5208 85.0612 51.7227 83.4727 51.7227C81.8841 51.7227 80.4323 51.5208 79.1172 51.1172C77.8021 50.7266 76.6237 50.1797 75.582 49.4766C74.5534 48.7604 73.6549 47.9271 72.8867 46.9766C72.1185 46.013 71.4805 44.9779 70.9727 43.8711C70.4648 42.7513 70.0872 41.5794 69.8398 40.3555C69.5924 39.1185 69.4688 37.8815 69.4688 36.6445C69.4688 34.418 69.7813 32.3802 70.4063 30.5312C71.0443 28.6823 71.9622 27.0937 73.1602 25.7656C74.3581 24.4375 75.8229 23.4089 77.5547 22.6797C79.2865 21.9375 81.2591 21.5664 83.4727 21.5664C85.6732 21.5664 87.6393 21.9375 89.3711 22.6797C91.1159 23.4089 92.5807 24.4375 93.7656 25.7656C94.9635 27.0937 95.875 28.6823 96.5 30.5312C97.138 32.3802 97.457 34.418 97.457 36.6445ZM93.6289 36.6445C93.6289 34.9388 93.401 33.3698 92.9453 31.9375C92.4896 30.4922 91.8255 29.2552 90.9531 28.2266C90.0938 27.1849 89.0326 26.3776 87.7695 25.8047C86.5065 25.2187 85.0742 24.9258 83.4727 24.9258C81.8581 24.9258 80.4193 25.2187 79.1563 25.8047C77.8932 26.3776 76.8255 27.1849 75.9531 28.2266C75.0938 29.2552 74.4362 30.4922 73.9805 31.9375C73.5247 33.3698 73.2969 34.9388 73.2969 36.6445C73.2969 38.3893 73.5052 39.9844 73.9219 41.4297C74.3385 42.862 74.9701 44.0924 75.8164 45.1211C76.6628 46.1497 77.7174 46.9505 78.9805 47.5234C80.2565 48.0833 81.7539 48.3633 83.4727 48.3633C85.1784 48.3633 86.6693 48.0833 87.9453 47.5234C89.2214 46.9505 90.276 46.1497 91.1094 45.1211C91.9557 44.0924 92.5872 42.862 93.0039 41.4297C93.4206 39.9844 93.6289 38.3893 93.6289 36.6445ZM119.684 25.6484L109.43 25.6484C109.43 27.875 109.404 30.0625 109.352 32.2109C109.299 34.3594 109.189 36.3971 109.02 38.3242C108.85 40.2383 108.596 42.0026 108.258 43.6172C107.919 45.2318 107.457 46.6315 106.871 47.8164C106.285 48.9883 105.556 49.9062 104.684 50.5703C103.824 51.2214 102.776 51.5469 101.539 51.5469C101.161 51.5469 100.842 51.5143 100.582 51.4492C100.335 51.3841 100.061 51.3125 99.7617 51.2344V47.6797C99.9049 47.7448 100.081 47.8034 100.289 47.8555C100.51 47.8945 100.823 47.9141 101.227 47.9141C101.826 47.9141 102.34 47.6992 102.77 47.2695C103.212 46.8268 103.59 46.2148 103.902 45.4336C104.215 44.6523 104.469 43.7279 104.664 42.6602C104.872 41.5794 105.035 40.4076 105.152 39.1445C105.283 37.8815 105.374 36.5469 105.426 35.1406C105.491 33.7344 105.536 32.3086 105.563 30.8633C105.602 29.4049 105.621 27.9531 105.621 26.5078C105.634 25.0495 105.654 23.6432 105.68 22.2891L123.531 22.2891L123.531 51L119.684 51L119.684 25.6484ZM136.793 34.3203L141.969 34.3203C142.789 34.3203 143.499 34.1966 144.098 33.9492C144.697 33.6888 145.191 33.3503 145.582 32.9336C145.973 32.5039 146.259 32.0286 146.441 31.5078C146.637 30.974 146.734 30.4336 146.734 29.8867C146.734 28.9883 146.559 28.2266 146.207 27.6016C145.855 26.9766 145.374 26.4687 144.762 26.0781C144.15 25.6745 143.421 25.3815 142.574 25.1992C141.741 25.0169 140.829 24.9258 139.84 24.9258C138.603 24.9258 137.509 25.1016 136.559 25.4531C135.621 25.7917 134.833 26.2539 134.195 26.8398C133.57 27.4128 133.102 28.0833 132.789 28.8516C132.49 29.6198 132.353 30.4271 132.379 31.2734L128.766 31.2734C128.766 30.0495 128.909 28.9557 129.195 27.9922C129.495 27.0286 129.905 26.1888 130.426 25.4727C130.947 24.7565 131.559 24.151 132.262 23.6562C132.965 23.1615 133.727 22.7578 134.547 22.4453C135.38 22.1328 136.253 21.9115 137.164 21.7812C138.089 21.638 139.02 21.5664 139.957 21.5664C141.493 21.5664 142.893 21.7357 144.156 22.0742C145.432 22.3997 146.526 22.8945 147.438 23.5586C148.349 24.2096 149.059 25.0299 149.566 26.0195C150.074 26.9961 150.328 28.1354 150.328 29.4375C150.328 30.9219 150.035 32.1784 149.449 33.207C148.876 34.2227 147.88 34.9909 146.461 35.5117V35.6094C147.203 35.8177 147.88 36.1237 148.492 36.5273C149.117 36.918 149.651 37.4128 150.094 38.0117C150.549 38.5977 150.901 39.2943 151.148 40.1016C151.409 40.9089 151.539 41.8333 151.539 42.875C151.539 44.3333 151.22 45.6159 150.582 46.7227C149.944 47.8294 149.091 48.7539 148.023 49.4961C146.956 50.2383 145.712 50.7917 144.293 51.1562C142.887 51.5339 141.415 51.7227 139.879 51.7227C138.238 51.7227 136.708 51.5664 135.289 51.2539C133.87 50.9544 132.62 50.4531 131.539 49.75C130.471 49.0469 129.612 48.1224 128.961 46.9766C128.31 45.8177 127.939 44.3984 127.848 42.7187H131.617C131.682 43.5391 131.871 44.2943 132.184 44.9844C132.509 45.6745 132.984 46.2734 133.609 46.7812C134.247 47.276 135.048 47.6667 136.012 47.9531C136.988 48.2266 138.16 48.3633 139.527 48.3633C140.764 48.3633 141.884 48.2591 142.887 48.0508C143.902 47.8424 144.762 47.5104 145.465 47.0547C146.181 46.599 146.728 46.013 147.105 45.2969C147.496 44.5677 147.691 43.6953 147.691 42.6797C147.691 41.9245 147.568 41.2344 147.32 40.6094C147.086 39.9844 146.721 39.444 146.227 38.9883C145.732 38.5326 145.113 38.181 144.371 37.9336C143.629 37.6732 142.75 37.543 141.734 37.543L136.793 37.543L136.793 34.3203ZM171.305 39.1641L166.93 26.3906L162.086 39.1641L171.305 39.1641ZM153.844 51L164.605 21.8398L169.273 21.8398L179.684 51L175.426 51L172.398 42.2109L161.109 42.2109L157.906 51L153.844 51ZM183.258 22.2891L204.215 22.2891V25.6484L187.086 25.6484V34.5156L202.887 34.5156V37.875L187.086 37.875L187.086 47.6406L204.488 47.6406V51L183.258 51L183.258 22.2891ZM209.938 22.2891L215.445 22.2891L223.57 46.4492H223.648L231.773 22.2891L237.281 22.2891L237.281 51L233.688 51L233.688 26.8398H233.609L225.523 51L221.695 51L213.609 26.8398H213.531L213.531 51L209.938 51L209.938 22.2891Z" fill="black"/>
</svg>
