<svg width="284" height="75" viewBox="0 0 284 75" fill="none" xmlns="http://www.w3.org/2000/svg">
<rect width="284" height="75" fill="#FDF12A"/>
<path d="M41.3906 37.6055C41.3906 39.4023 41.6185 41.0299 42.0742 42.4883C42.5299 43.9336 43.168 45.1641 43.9883 46.1797C44.8216 47.1953 45.8177 47.9831 46.9766 48.543C48.1484 49.0898 49.4375 49.3633 50.8438 49.3633C52.0677 49.3633 53.1615 49.1419 54.125 48.6992C55.1016 48.2565 55.9414 47.6771 56.6445 46.9609C57.3477 46.2318 57.9141 45.4115 58.3438 44.5C58.7734 43.5885 59.0599 42.6641 59.2031 41.7266H62.9141C62.8359 42.5599 62.6536 43.4128 62.3672 44.2852C62.0938 45.1445 61.7161 45.9844 61.2344 46.8047C60.7656 47.612 60.1992 48.3802 59.5352 49.1094C58.8711 49.8255 58.1029 50.4505 57.2305 50.9844C56.3711 51.5182 55.4076 51.9414 54.3398 52.2539C53.2721 52.5664 52.1068 52.7227 50.8438 52.7227C49.9714 52.7227 49.0339 52.6315 48.0313 52.4492C47.0417 52.2669 46.0521 51.9609 45.0625 51.5312C44.0859 51.1016 43.1419 50.5286 42.2305 49.8125C41.332 49.0833 40.5378 48.1719 39.8477 47.0781C39.1576 45.9844 38.6042 44.6953 38.1875 43.2109C37.7708 41.7135 37.5625 39.9753 37.5625 37.9961C37.5625 36.056 37.7448 34.3242 38.1094 32.8008C38.487 31.2773 38.9948 29.9492 39.6328 28.8164C40.2839 27.6706 41.0391 26.7005 41.8984 25.9062C42.7708 25.112 43.7018 24.4674 44.6914 23.9727C45.681 23.4779 46.7096 23.1198 47.7773 22.8984C48.8451 22.6771 49.9063 22.5664 50.9609 22.5664C52.263 22.5664 53.4479 22.7031 54.5156 22.9766C55.5964 23.237 56.5599 23.6016 57.4063 24.0703C58.2656 24.526 59.0143 25.0599 59.6523 25.6719C60.2904 26.2839 60.8242 26.9349 61.2539 27.625C61.6966 28.3021 62.0352 28.9987 62.2695 29.7148C62.5169 30.431 62.6667 31.1276 62.7188 31.8047L58.9688 31.8047C58.7214 30.8802 58.3568 30.0534 57.875 29.3242C57.3932 28.5951 56.8073 27.9831 56.1172 27.4883C55.4401 26.9805 54.6719 26.5964 53.8125 26.3359C52.9661 26.0625 52.0547 25.9258 51.0781 25.9258C49.6068 25.9258 48.2721 26.1992 47.0742 26.7461C45.8893 27.293 44.8737 28.0742 44.0273 29.0898C43.181 30.1055 42.5299 31.3359 42.0742 32.7812C41.6185 34.2135 41.3906 35.8216 41.3906 37.6055ZM94.457 37.6445C94.457 38.8815 94.3333 40.1185 94.0859 41.3555C93.8385 42.5794 93.4609 43.7513 92.9531 44.8711C92.4453 45.9779 91.8073 47.013 91.0391 47.9766C90.2839 48.9271 89.3854 49.7604 88.3438 50.4766C87.3021 51.1797 86.1237 51.7266 84.8086 52.1172C83.5065 52.5208 82.0612 52.7227 80.4727 52.7227C78.8841 52.7227 77.4323 52.5208 76.1172 52.1172C74.8021 51.7266 73.6237 51.1797 72.582 50.4766C71.5534 49.7604 70.6549 48.9271 69.8867 47.9766C69.1185 47.013 68.4805 45.9779 67.9727 44.8711C67.4648 43.7513 67.0872 42.5794 66.8398 41.3555C66.5924 40.1185 66.4688 38.8815 66.4688 37.6445C66.4688 35.418 66.7813 33.3802 67.4063 31.5312C68.0443 29.6823 68.9622 28.0937 70.1602 26.7656C71.3581 25.4375 72.8229 24.4089 74.5547 23.6797C76.2865 22.9375 78.2591 22.5664 80.4727 22.5664C82.6732 22.5664 84.6393 22.9375 86.3711 23.6797C88.1159 24.4089 89.5807 25.4375 90.7656 26.7656C91.9635 28.0937 92.875 29.6823 93.5 31.5312C94.138 33.3802 94.457 35.418 94.457 37.6445ZM90.6289 37.6445C90.6289 35.9388 90.401 34.3698 89.9453 32.9375C89.4896 31.4922 88.8255 30.2552 87.9531 29.2266C87.0938 28.1849 86.0326 27.3776 84.7695 26.8047C83.5065 26.2187 82.0742 25.9258 80.4727 25.9258C78.8581 25.9258 77.4193 26.2187 76.1563 26.8047C74.8932 27.3776 73.8255 28.1849 72.9531 29.2266C72.0938 30.2552 71.4362 31.4922 70.9805 32.9375C70.5247 34.3698 70.2969 35.9388 70.2969 37.6445C70.2969 39.3893 70.5052 40.9844 70.9219 42.4297C71.3385 43.862 71.9701 45.0924 72.8164 46.1211C73.6628 47.1497 74.7174 47.9505 75.9805 48.5234C77.2565 49.0833 78.7539 49.3633 80.4727 49.3633C82.1784 49.3633 83.6693 49.0833 84.9453 48.5234C86.2214 47.9505 87.276 47.1497 88.1094 46.1211C88.9557 45.0924 89.5872 43.862 90.0039 42.4297C90.4206 40.9844 90.6289 39.3893 90.6289 37.6445ZM106.332 35.3203L111.508 35.3203C112.328 35.3203 113.038 35.1966 113.637 34.9492C114.236 34.6888 114.73 34.3503 115.121 33.9336C115.512 33.5039 115.798 33.0286 115.98 32.5078C116.176 31.974 116.273 31.4336 116.273 30.8867C116.273 29.9883 116.098 29.2266 115.746 28.6016C115.395 27.9766 114.913 27.4687 114.301 27.0781C113.689 26.6745 112.96 26.3815 112.113 26.1992C111.28 26.0169 110.368 25.9258 109.379 25.9258C108.142 25.9258 107.048 26.1016 106.098 26.4531C105.16 26.7917 104.372 27.2539 103.734 27.8398C103.109 28.4128 102.641 29.0833 102.328 29.8516C102.029 30.6198 101.892 31.4271 101.918 32.2734L98.3047 32.2734C98.3047 31.0495 98.4479 29.9557 98.7344 28.9922C99.0339 28.0286 99.444 27.1888 99.9648 26.4727C100.486 25.7565 101.098 25.151 101.801 24.6562C102.504 24.1615 103.266 23.7578 104.086 23.4453C104.919 23.1328 105.792 22.9115 106.703 22.7812C107.628 22.638 108.559 22.5664 109.496 22.5664C111.033 22.5664 112.432 22.7357 113.695 23.0742C114.971 23.3997 116.065 23.8945 116.977 24.5586C117.888 25.2096 118.598 26.0299 119.105 27.0195C119.613 27.9961 119.867 29.1354 119.867 30.4375C119.867 31.9219 119.574 33.1784 118.988 34.207C118.415 35.2227 117.419 35.9909 116 36.5117V36.6094C116.742 36.8177 117.419 37.1237 118.031 37.5273C118.656 37.918 119.19 38.4128 119.633 39.0117C120.089 39.5977 120.44 40.2943 120.688 41.1016C120.948 41.9089 121.078 42.8333 121.078 43.875C121.078 45.3333 120.759 46.6159 120.121 47.7227C119.483 48.8294 118.63 49.7539 117.563 50.4961C116.495 51.2383 115.251 51.7917 113.832 52.1562C112.426 52.5339 110.954 52.7227 109.418 52.7227C107.777 52.7227 106.247 52.5664 104.828 52.2539C103.409 51.9544 102.159 51.4531 101.078 50.75C100.01 50.0469 99.151 49.1224 98.5 47.9766C97.849 46.8177 97.4779 45.3984 97.3867 43.7187L101.156 43.7187C101.221 44.5391 101.41 45.2943 101.723 45.9844C102.048 46.6745 102.523 47.2734 103.148 47.7812C103.786 48.276 104.587 48.6667 105.551 48.9531C106.527 49.2266 107.699 49.3633 109.066 49.3633C110.303 49.3633 111.423 49.2591 112.426 49.0508C113.441 48.8424 114.301 48.5104 115.004 48.0547C115.72 47.599 116.267 47.013 116.645 46.2969C117.035 45.5677 117.23 44.6953 117.23 43.6797C117.23 42.9245 117.107 42.2344 116.859 41.6094C116.625 40.9844 116.26 40.444 115.766 39.9883C115.271 39.5326 114.652 39.181 113.91 38.9336C113.168 38.6732 112.289 38.543 111.273 38.543L106.332 38.543L106.332 35.3203ZM123.402 58.1523L123.402 48.6406L126 48.6406C126.273 48.0156 126.527 47.3841 126.762 46.7461C126.996 46.0951 127.211 45.3659 127.406 44.5586C127.615 43.7383 127.803 42.8008 127.973 41.7461C128.155 40.6914 128.324 39.4414 128.48 37.9961C128.663 36.4727 128.806 34.9753 128.91 33.5039C129.014 32.0195 129.092 30.6328 129.145 29.3437C129.21 28.0547 129.249 26.8893 129.262 25.8477C129.288 24.806 129.307 23.9531 129.32 23.2891L147.367 23.2891L147.367 48.6406L150.609 48.6406V58.1523L147.016 58.1523V52L126.996 52L126.996 58.1523L123.402 58.1523ZM132.914 26.6484C132.914 28.5104 132.836 30.3659 132.68 32.2148C132.536 34.0638 132.361 35.9258 132.152 37.8008C132.009 39.2852 131.859 40.5482 131.703 41.5898C131.56 42.6185 131.404 43.5365 131.234 44.3437C131.078 45.138 130.896 45.8737 130.688 46.5508C130.492 47.2148 130.264 47.9115 130.004 48.6406L143.422 48.6406L143.422 26.6484L132.914 26.6484ZM168.891 40.1641L164.516 27.3906L159.672 40.1641L168.891 40.1641ZM151.43 52L162.191 22.8398L166.859 22.8398L177.27 52L173.012 52L169.984 43.2109L158.695 43.2109L155.492 52L151.43 52ZM180.844 23.2891L201.801 23.2891V26.6484L184.672 26.6484V35.5156L200.473 35.5156V38.875L184.672 38.875L184.672 48.6406L202.074 48.6406V52L180.844 52L180.844 23.2891ZM207.523 23.2891L213.031 23.2891L221.156 47.4492H221.234L229.359 23.2891L234.867 23.2891L234.867 52L231.273 52L231.273 27.8398H231.195L223.109 52L219.281 52L211.195 27.8398H211.117L211.117 52L207.523 52L207.523 23.2891Z" fill="black"/>
</svg>
