<svg width="54" height="38" viewBox="0 0 54 38" fill="none" xmlns="http://www.w3.org/2000/svg">
<path d="M28.68 37.13L25.32 37.13C24.0933 37.13 22.9733 36.3567 21.96 34.81L0.36 2.81C0.2 2.54333 0.12 2.19666 0.12 1.77C0.12 1.39666 0.28 1.05 0.6 0.729995C0.92 0.409995 1.32 0.249995 1.8 0.249995L14.76 0.249996C15.4 0.249996 15.96 0.409996 16.44 0.729996C16.9733 1.10333 17.32 1.39666 17.48 1.61C17.64 1.87666 17.88 2.27666 18.2 2.81L27 16.81L35.72 2.81C36.7333 1.10333 37.9067 0.249997 39.24 0.249997L52.2 0.249998C52.68 0.249998 53.08 0.409998 53.4 0.729998C53.72 1.05 53.88 1.39666 53.88 1.77C53.88 2.19666 53.8 2.54333 53.64 2.81L32.04 34.81C31.0267 36.3567 29.9067 37.13 28.68 37.13Z" fill="black"/>
</svg>
