<svg width="54" height="79" viewBox="0 0 54 79" fill="none" xmlns="http://www.w3.org/2000/svg">
<path d="M25.32 41.72L28.68 41.72C29.9067 41.72 31.0267 42.4933 32.04 44.04L53.64 76.04C53.8 76.3067 53.88 76.6533 53.88 77.08C53.88 77.4533 53.72 77.8 53.4 78.12C53.08 78.44 52.68 78.6 52.2 78.6L39.24 78.6C38.6 78.6 38.04 78.44 37.56 78.12C37.0267 77.7467 36.68 77.4533 36.52 77.24C36.36 76.9733 36.12 76.5733 35.8 76.04L27 62.04L18.28 76.04C17.2667 77.7467 16.0933 78.6 14.76 78.6L1.8 78.6C1.32 78.6 0.919998 78.44 0.599999 78.12C0.279997 77.8 0.119996 77.4533 0.119996 77.08C0.119996 76.6533 0.199996 76.3067 0.359997 76.04L21.96 44.04C22.9733 42.4933 24.0933 41.72 25.32 41.72ZM25.32 0.0199912L28.68 0.0199911C29.9067 0.019991 31.0267 0.793325 32.04 2.33999L53.64 34.34C53.8 34.6067 53.88 34.9533 53.88 35.38C53.88 35.7533 53.72 36.1 53.4 36.42C53.08 36.74 52.68 36.9 52.2 36.9L39.24 36.9C38.6 36.9 38.04 36.74 37.56 36.42C37.0267 36.0467 36.68 35.7533 36.52 35.54C36.36 35.2733 36.12 34.8733 35.8 34.34L27 20.34L18.28 34.34C17.2667 36.0467 16.0933 36.9 14.76 36.9L1.8 36.9C1.32 36.9 0.919996 36.74 0.599997 36.42C0.279995 36.1 0.119994 35.7533 0.119994 35.38C0.119994 34.9533 0.199995 34.6067 0.359996 34.34L21.96 2.33999C22.9733 0.793325 24.0933 0.0199913 25.32 0.0199912Z" fill="black"/>
</svg>
