<svg width="54" height="79" viewBox="0 0 54 79" fill="none" xmlns="http://www.w3.org/2000/svg">
<path d="M28.68 37.28L25.32 37.28C24.0933 37.28 22.9733 36.5067 21.96 34.96L0.36 2.96C0.2 2.69333 0.12 2.34666 0.12 1.92C0.12 1.54666 0.28 1.2 0.6 0.879997C0.92 0.559997 1.32 0.399997 1.8 0.399997L14.76 0.399997C15.4 0.399997 15.96 0.559998 16.44 0.879998C16.9733 1.25333 17.32 1.54666 17.48 1.76C17.64 2.02666 17.88 2.42666 18.2 2.96L27 16.96L35.72 2.96C36.7333 1.25333 37.9067 0.399998 39.24 0.399999L52.2 0.399999C52.68 0.399999 53.08 0.559999 53.4 0.879999C53.72 1.2 53.88 1.54667 53.88 1.92C53.88 2.34667 53.8 2.69333 53.64 2.96L32.04 34.96C31.0267 36.5067 29.9067 37.28 28.68 37.28ZM28.68 78.98L25.32 78.98C24.0933 78.98 22.9733 78.2067 21.96 76.66L0.359998 44.66C0.199998 44.3933 0.119998 44.0467 0.119998 43.62C0.119998 43.2467 0.279998 42.9 0.599998 42.58C0.919998 42.26 1.32 42.1 1.8 42.1L14.76 42.1C15.4 42.1 15.96 42.26 16.44 42.58C16.9733 42.9533 17.32 43.2467 17.48 43.46C17.64 43.7267 17.88 44.1267 18.2 44.66L27 58.66L35.72 44.66C36.7333 42.9533 37.9067 42.1 39.24 42.1L52.2 42.1C52.68 42.1 53.08 42.26 53.4 42.58C53.72 42.9 53.88 43.2467 53.88 43.62C53.88 44.0467 53.8 44.3933 53.64 44.66L32.04 76.66C31.0267 78.2067 29.9067 78.98 28.68 78.98Z" fill="black"/>
</svg>
