<svg width="54" height="121" viewBox="0 0 54 121" fill="none" xmlns="http://www.w3.org/2000/svg">
<path d="M25.32 84.07L28.68 84.07C29.9067 84.07 31.0267 84.8433 32.04 86.39L53.64 118.39C53.8 118.657 53.88 119.003 53.88 119.43C53.88 119.803 53.72 120.15 53.4 120.47C53.08 120.79 52.68 120.95 52.2 120.95L39.24 120.95C38.6 120.95 38.04 120.79 37.56 120.47C37.0267 120.097 36.68 119.803 36.52 119.59C36.36 119.323 36.12 118.923 35.8 118.39L27 104.39L18.28 118.39C17.2667 120.097 16.0933 120.95 14.76 120.95L1.8 120.95C1.32 120.95 0.919998 120.79 0.599999 120.47C0.279997 120.15 0.119996 119.803 0.119996 119.43C0.119996 119.003 0.199996 118.657 0.359997 118.39L21.96 86.39C22.9733 84.8433 24.0933 84.07 25.32 84.07ZM25.32 42.37L28.68 42.37C29.9067 42.37 31.0267 43.1433 32.04 44.69L53.64 76.69C53.8 76.9567 53.88 77.3033 53.88 77.73C53.88 78.1033 53.72 78.45 53.4 78.77C53.08 79.09 52.68 79.25 52.2 79.25L39.24 79.25C38.6 79.25 38.04 79.09 37.56 78.77C37.0267 78.3967 36.68 78.1033 36.52 77.89C36.36 77.6233 36.12 77.2233 35.8 76.69L27 62.69L18.28 76.69C17.2667 78.3967 16.0933 79.25 14.76 79.25L1.8 79.25C1.32 79.25 0.919996 79.09 0.599997 78.77C0.279995 78.45 0.119994 78.1033 0.119994 77.73C0.119994 77.3033 0.199995 76.9567 0.359996 76.69L21.96 44.69C22.9733 43.1433 24.0933 42.37 25.32 42.37ZM25.32 0.669997L28.68 0.669996C29.9067 0.669996 31.0267 1.44333 32.04 2.99L53.64 34.99C53.8 35.2567 53.88 35.6033 53.88 36.03C53.88 36.4033 53.72 36.75 53.4 37.07C53.08 37.39 52.68 37.55 52.2 37.55L39.24 37.55C38.6 37.55 38.04 37.39 37.56 37.07C37.0267 36.6967 36.68 36.4033 36.52 36.19C36.36 35.9233 36.12 35.5233 35.8 34.99L27 20.99L18.28 34.99C17.2667 36.6967 16.0933 37.55 14.76 37.55L1.79999 37.55C1.31999 37.55 0.919995 37.39 0.599996 37.07C0.279993 36.75 0.119992 36.4033 0.119992 36.03C0.119992 35.6033 0.199993 35.2567 0.359994 34.99L21.96 2.99C22.9733 1.44333 24.0933 0.669997 25.32 0.669997Z" fill="black"/>
</svg>
