<svg width="284" height="75" viewBox="0 0 284 75" fill="none" xmlns="http://www.w3.org/2000/svg">
<rect width="284" height="75" fill="#FDF12A"/>
<path d="M56.3906 36.6055C56.3906 38.4023 56.6185 40.0299 57.0742 41.4883C57.5299 42.9336 58.168 44.1641 58.9883 45.1797C59.8216 46.1953 60.8177 46.9831 61.9766 47.543C63.1484 48.0898 64.4375 48.3633 65.8438 48.3633C67.0677 48.3633 68.1615 48.1419 69.125 47.6992C70.1016 47.2565 70.9414 46.6771 71.6445 45.9609C72.3477 45.2318 72.9141 44.4115 73.3438 43.5C73.7734 42.5885 74.0599 41.6641 74.2031 40.7266H77.9141C77.8359 41.5599 77.6536 42.4128 77.3672 43.2852C77.0938 44.1445 76.7161 44.9844 76.2344 45.8047C75.7656 46.612 75.1992 47.3802 74.5352 48.1094C73.8711 48.8255 73.1029 49.4505 72.2305 49.9844C71.3711 50.5182 70.4076 50.9414 69.3398 51.2539C68.2721 51.5664 67.1068 51.7227 65.8438 51.7227C64.9714 51.7227 64.0339 51.6315 63.0313 51.4492C62.0417 51.2669 61.0521 50.9609 60.0625 50.5312C59.0859 50.1016 58.1419 49.5286 57.2305 48.8125C56.332 48.0833 55.5378 47.1719 54.8477 46.0781C54.1576 44.9844 53.6042 43.6953 53.1875 42.2109C52.7708 40.7135 52.5625 38.9753 52.5625 36.9961C52.5625 35.056 52.7448 33.3242 53.1094 31.8008C53.487 30.2773 53.9948 28.9492 54.6328 27.8164C55.2839 26.6706 56.0391 25.7005 56.8984 24.9062C57.7708 24.112 58.7018 23.4674 59.6914 22.9727C60.681 22.4779 61.7096 22.1198 62.7773 21.8984C63.8451 21.6771 64.9063 21.5664 65.9609 21.5664C67.263 21.5664 68.4479 21.7031 69.5156 21.9766C70.5964 22.237 71.5599 22.6016 72.4063 23.0703C73.2656 23.526 74.0143 24.0599 74.6523 24.6719C75.2904 25.2839 75.8242 25.9349 76.2539 26.625C76.6966 27.3021 77.0352 27.9987 77.2695 28.7148C77.5169 29.431 77.6667 30.1276 77.7188 30.8047L73.9688 30.8047C73.7214 29.8802 73.3568 29.0534 72.875 28.3242C72.3932 27.5951 71.8073 26.9831 71.1172 26.4883C70.4401 25.9805 69.6719 25.5964 68.8125 25.3359C67.9661 25.0625 67.0547 24.9258 66.0781 24.9258C64.6068 24.9258 63.2721 25.1992 62.0742 25.7461C60.8893 26.293 59.8737 27.0742 59.0273 28.0898C58.181 29.1055 57.5299 30.3359 57.0742 31.7812C56.6185 33.2135 56.3906 34.8216 56.3906 36.6055ZM80.4727 22.2891L103.832 22.2891L103.832 25.6484L94.0664 25.6484L94.0664 51L90.2188 51L90.2188 25.6484L80.4727 25.6484L80.4727 22.2891ZM119.008 35.7266C121.039 35.7266 122.504 35.2969 123.402 34.4375C124.301 33.5781 124.75 32.3281 124.75 30.6875C124.75 29.0469 124.301 27.7969 123.402 26.9375C122.504 26.0781 121.039 25.6484 119.008 25.6484L111.156 25.6484V35.7266L119.008 35.7266ZM107.328 22.2891L119.398 22.2891C120.974 22.2891 122.335 22.4909 123.48 22.8945C124.639 23.2982 125.596 23.8711 126.352 24.6133C127.107 25.3424 127.667 26.2214 128.031 27.25C128.409 28.2786 128.598 29.4245 128.598 30.6875C128.598 31.9505 128.409 33.0964 128.031 34.125C127.667 35.1536 127.107 36.0391 126.352 36.7812C125.596 37.5104 124.639 38.0768 123.48 38.4805C122.335 38.8841 120.974 39.0859 119.398 39.0859L111.156 39.0859L111.156 51L107.328 51L107.328 22.2891ZM160.59 36.6445C160.59 37.8815 160.466 39.1185 160.219 40.3555C159.971 41.5794 159.594 42.7513 159.086 43.8711C158.578 44.9779 157.94 46.013 157.172 46.9766C156.417 47.9271 155.518 48.7604 154.477 49.4766C153.435 50.1797 152.257 50.7266 150.941 51.1172C149.639 51.5208 148.194 51.7227 146.605 51.7227C145.017 51.7227 143.565 51.5208 142.25 51.1172C140.935 50.7266 139.757 50.1797 138.715 49.4766C137.686 48.7604 136.788 47.9271 136.02 46.9766C135.251 46.013 134.613 44.9779 134.105 43.8711C133.598 42.7513 133.22 41.5794 132.973 40.3555C132.725 39.1185 132.602 37.8815 132.602 36.6445C132.602 34.418 132.914 32.3802 133.539 30.5312C134.177 28.6823 135.095 27.0937 136.293 25.7656C137.491 24.4375 138.956 23.4089 140.688 22.6797C142.419 21.9375 144.392 21.5664 146.605 21.5664C148.806 21.5664 150.772 21.9375 152.504 22.6797C154.249 23.4089 155.714 24.4375 156.898 25.7656C158.096 27.0937 159.008 28.6823 159.633 30.5312C160.271 32.3802 160.59 34.418 160.59 36.6445ZM156.762 36.6445C156.762 34.9388 156.534 33.3698 156.078 31.9375C155.622 30.4922 154.958 29.2552 154.086 28.2266C153.227 27.1849 152.165 26.3776 150.902 25.8047C149.639 25.2187 148.207 24.9258 146.605 24.9258C144.991 24.9258 143.552 25.2187 142.289 25.8047C141.026 26.3776 139.958 27.1849 139.086 28.2266C138.227 29.2552 137.569 30.4922 137.113 31.9375C136.658 33.3698 136.43 34.9388 136.43 36.6445C136.43 38.3893 136.638 39.9844 137.055 41.4297C137.471 42.862 138.103 44.0924 138.949 45.1211C139.796 46.1497 140.85 46.9505 142.113 47.5234C143.389 48.0833 144.887 48.3633 146.605 48.3633C148.311 48.3633 149.802 48.0833 151.078 47.5234C152.354 46.9505 153.409 46.1497 154.242 45.1211C155.089 44.0924 155.72 42.862 156.137 41.4297C156.553 39.9844 156.762 38.3893 156.762 36.6445ZM165.141 22.2891L168.969 22.2891L168.969 45.5117H169.047L183.656 22.2891L188.09 22.2891L188.09 51L184.242 51L184.242 27.6406H184.164L169.574 51L165.141 51L165.141 22.2891ZM194.047 22.2891L199.555 22.2891L207.68 46.4492H207.758L215.883 22.2891L221.391 22.2891L221.391 51L217.797 51L217.797 26.8398H217.719L209.633 51L205.805 51L197.719 26.8398H197.641L197.641 51H194.047L194.047 22.2891Z" fill="black"/>
</svg>
