<svg width="601" height="364" viewBox="0 0 601 364" fill="none" xmlns="http://www.w3.org/2000/svg">
<rect x="18.4996" y="91.0293" width="26.7338" height="43.7996" transform="rotate(-128.774 18.4996 91.0293)" stroke="#FDF12A" stroke-width="2.5"/>
<rect x="125.457" y="160.434" width="26.7338" height="43.7996" transform="rotate(95.3362 125.457 160.434)" stroke="#FDF12A" stroke-width="2.5"/>
<rect x="119.578" y="311.653" width="26.7338" height="43.7996" transform="rotate(65.7171 119.578 311.653)" stroke="#FDF12A" stroke-width="2.5"/>
<rect x="389.026" y="145.457" width="26.7338" height="43.7996" transform="rotate(122.804 389.026 145.457)" stroke="#FDF12A" stroke-width="2.5"/>
<rect x="314.31" y="7.10587" width="26.7338" height="43.7996" transform="rotate(97.4825 314.31 7.10587)" stroke="#FDF12A" stroke-width="2.5"/>
<rect x="244.95" y="240.368" width="26.7338" height="43.7996" transform="rotate(84.2862 244.95 240.368)" stroke="#FDF12A" stroke-width="2.5"/>
<rect x="208.702" y="354.525" width="26.7338" height="43.7996" transform="rotate(163.377 208.702 354.525)" stroke="#FDF12A" stroke-width="2.5"/>
<rect x="320.516" y="247.664" width="26.7338" height="43.7996" transform="rotate(36.2191 320.516 247.664)" stroke="#FDF12A" stroke-width="2.5"/>
<rect x="269.212" y="153.301" width="26.7338" height="43.7996" transform="rotate(175.174 269.212 153.301)" stroke="#FDF12A" stroke-width="2.5"/>
<rect x="402.271" y="54.748" width="26.7338" height="43.7996" transform="rotate(171.591 402.271 54.748)" stroke="#FDF12A" stroke-width="2.5"/>
<rect x="439.679" y="266.552" width="26.7338" height="43.7996" transform="rotate(-63.2538 439.679 266.552)" stroke="#FDF12A" stroke-width="2.5"/>
<rect x="564.457" y="179.338" width="26.7338" height="43.7996" transform="rotate(-10.519 564.457 179.338)" stroke="#FDF12A" stroke-width="2.5"/>
<rect x="358.509" y="198.799" width="26.7338" height="43.7996" transform="rotate(-13.6093 358.509 198.799)" stroke="#FDF12A" stroke-width="2.5"/>
</svg>
