<svg width="1400" height="188" viewBox="0 0 1400 188" fill="none" xmlns="http://www.w3.org/2000/svg">
<path d="M95.54 68C97.4467 65.7467 98.4 63.06 98.4 59.94C98.4 56.82 97.4467 54.0467 95.54 51.62C93.8067 49.02 91.2067 47.72 87.74 47.72H65.9V71.38H87.74C91.2067 71.38 93.8067 70.2533 95.54 68ZM65.9 114.8V140.28H90.08C94.0667 140.28 97.0133 138.98 98.92 136.38C101 133.607 102.04 130.573 102.04 127.28V127.02C102.04 123.727 100.913 120.867 98.66 118.44C96.58 116.013 93.72 114.8 90.08 114.8H65.9ZM96.84 185H7.92C6.01333 185 4.36667 184.307 2.98 182.92C1.59333 181.533 0.900001 179.887 0.900001 177.98V10.02C0.900001 8.11333 1.59333 6.46666 2.98 5.07999C4.36667 3.69332 6.01333 2.99999 7.92 2.99999H94.24C118.853 2.99999 136.967 7.50666 148.58 16.52C160.367 25.36 166.26 38.7933 166.26 56.82V57.6C166.26 65.0533 164.093 71.7267 159.76 77.62C155.427 83.34 150.66 87.5 145.46 90.1C152.393 92.8733 158.2 97.8133 162.88 104.92C167.733 111.853 170.16 119.48 170.16 127.8C170.16 165.933 145.72 185 96.84 185ZM281.923 185H204.443C202.537 185 200.89 184.307 199.503 182.92C198.117 181.533 197.423 179.887 197.423 177.98V10.02C197.423 8.11333 198.117 6.46666 199.503 5.07999C200.89 3.69332 202.537 2.99999 204.443 2.99999H258.003C259.91 2.99999 261.557 3.69332 262.943 5.07999C264.33 6.46666 265.023 8.11333 265.023 10.02V59.68H281.923C307.057 59.68 326.557 64.7067 340.423 74.76C354.463 84.8133 361.483 100.327 361.483 121.3C361.483 142.273 354.463 158.133 340.423 168.88C326.383 179.627 306.883 185 281.923 185ZM263.723 107.78V136.64H281.923C286.083 136.64 289.117 135.167 291.023 132.22C292.93 129.273 293.883 125.633 293.883 121.3C293.883 116.967 292.67 113.673 290.243 111.42C287.817 108.993 285.043 107.78 281.923 107.78H263.723ZM431.163 185H378.123C376.217 185 374.57 184.307 373.183 182.92C371.797 181.533 371.103 179.887 371.103 177.98V10.02C371.103 8.11333 371.797 6.46666 373.183 5.07999C374.57 3.69332 376.217 2.99999 378.123 2.99999H431.163C433.07 2.99999 434.717 3.69332 436.103 5.07999C437.49 6.46666 438.183 8.11333 438.183 10.02V177.98C438.183 179.887 437.49 181.533 436.103 182.92C434.717 184.307 433.07 185 431.163 185ZM534.296 72.16V115.84C534.296 129.88 540.709 136.9 553.536 136.9C563.416 136.9 569.916 132.22 573.036 122.86C573.903 119.913 574.943 117.92 576.156 116.88C577.543 115.84 579.709 115.32 582.656 115.32H635.696C637.256 115.32 638.556 115.927 639.596 117.14C640.809 118.18 641.416 119.48 641.416 121.04C641.416 136.12 637.083 148.773 628.416 159C612.469 178.067 587.596 187.6 553.796 187.6C527.276 187.6 506.129 181.793 490.356 170.18C474.583 158.393 466.696 140.367 466.696 116.1V71.9C466.696 48.1533 474.756 30.3 490.876 18.34C506.996 6.37999 527.969 0.39999 553.796 0.39999C587.596 0.39999 612.469 9.93332 628.416 29C637.083 39.2267 641.416 51.88 641.416 66.96C641.416 68.52 640.809 69.9067 639.596 71.12C638.556 72.16 637.256 72.68 635.696 72.68H582.656C579.883 72.68 577.803 72.16 576.416 71.12C575.203 70.08 574.076 68.0867 573.036 65.14C569.743 55.78 563.243 51.1 553.536 51.1C540.709 51.1 534.296 58.12 534.296 72.16ZM684.594 19.64C700.541 6.81332 721.601 0.39999 747.774 0.39999C773.948 0.39999 794.921 6.89999 810.694 19.9C826.641 32.7267 834.614 50.84 834.614 74.24V114.8C834.614 138.547 826.728 156.66 810.954 169.14C795.354 181.447 774.294 187.6 747.774 187.6C721.254 187.6 700.108 181.447 684.334 169.14C668.734 156.66 660.934 138.547 660.934 114.8V74.24C660.934 50.6667 668.821 32.4667 684.594 19.64ZM733.734 131.7C737.201 135.167 741.881 136.9 747.774 136.9C753.668 136.9 758.348 135.167 761.814 131.7C765.281 128.233 767.014 122.947 767.014 115.84V72.16C767.014 65.2267 765.281 60.0267 761.814 56.56C758.348 52.92 753.668 51.1 747.774 51.1C741.881 51.1 737.201 52.92 733.734 56.56C730.268 60.0267 728.534 65.2267 728.534 72.16V115.84C728.534 122.947 730.268 128.233 733.734 131.7ZM861.086 2.99999H1013.45C1015.35 2.99999 1017 3.69332 1018.39 5.07999C1019.77 6.46666 1020.47 8.11333 1020.47 10.02V51.88C1020.47 53.7867 1019.77 55.4333 1018.39 56.82C1017 58.2067 1015.35 58.9 1013.45 58.9H970.286V177.98C970.286 179.887 969.592 181.533 968.206 182.92C966.819 184.307 965.172 185 963.266 185H911.266C909.359 185 907.712 184.307 906.326 182.92C904.939 181.533 904.246 179.887 904.246 177.98V58.9H861.086C859.179 58.9 857.532 58.2067 856.146 56.82C854.759 55.4333 854.066 53.7867 854.066 51.88V10.02C854.066 8.11333 854.759 6.46666 856.146 5.07999C857.532 3.69332 859.179 2.99999 861.086 2.99999ZM1215.52 176.42C1216.04 177.287 1216.3 178.413 1216.3 179.8C1216.3 181.013 1215.69 182.227 1214.48 183.44C1213.44 184.48 1212.14 185 1210.58 185H1151.3C1146.27 185 1142.72 183.007 1140.64 179.02L1108.92 122.34V177.98C1108.92 179.887 1108.22 181.533 1106.84 182.92C1105.45 184.307 1103.8 185 1101.9 185H1052.24C1050.33 185 1048.68 184.307 1047.3 182.92C1045.91 181.533 1045.22 179.887 1045.22 177.98V10.02C1045.22 8.11333 1045.91 6.46666 1047.3 5.07999C1048.68 3.69332 1050.33 2.99999 1052.24 2.99999H1101.9C1103.8 2.99999 1105.45 3.69332 1106.84 5.07999C1108.22 6.46666 1108.92 8.11333 1108.92 10.02V61.5L1138.3 8.71999C1140.2 4.90666 1143.67 2.99999 1148.7 2.99999H1206.16C1207.72 2.99999 1209.02 3.60666 1210.06 4.82C1211.27 5.85999 1211.88 7.07333 1211.88 8.45999C1211.88 9.67332 1211.62 10.7133 1211.1 11.58L1164.3 90.1L1215.52 176.42ZM1242.92 2.99999H1289.98C1291.89 2.99999 1293.53 3.69332 1294.92 5.07999C1296.31 6.46666 1297 8.11333 1297 10.02V81L1340.94 8.97999C1343.19 4.99332 1346.75 2.99999 1351.6 2.99999H1392.68C1394.59 2.99999 1396.23 3.69332 1397.62 5.07999C1399.01 6.46666 1399.7 8.11333 1399.7 10.02V177.98C1399.7 179.887 1399.01 181.533 1397.62 182.92C1396.23 184.307 1394.59 185 1392.68 185H1345.62C1343.71 185 1342.07 184.307 1340.68 182.92C1339.29 181.533 1338.6 179.887 1338.6 177.98V112.72L1294.66 179.02C1292.06 183.007 1288.51 185 1284 185H1242.92C1241.01 185 1239.37 184.307 1237.98 182.92C1236.59 181.533 1235.9 179.887 1235.9 177.98V10.02C1235.9 8.11333 1236.59 6.46666 1237.98 5.07999C1239.37 3.69332 1241.01 2.99999 1242.92 2.99999Z" fill="white"/>
</svg>
