<svg width="284" height="75" viewBox="0 0 284 75" fill="none" xmlns="http://www.w3.org/2000/svg">
<rect width="284" height="75" fill="#FDF12A"/>
<path d="M15.9688 22.2891L26.2422 22.2891C27.375 22.2891 28.3646 22.3216 29.2109 22.3867C30.0573 22.4388 30.8516 22.5625 31.5938 22.7578C32.2969 22.9531 32.9544 23.2396 33.5664 23.6172C34.1914 23.9818 34.7383 24.4505 35.207 25.0234C35.6758 25.5833 36.0404 26.2409 36.3008 26.9961C36.5742 27.7383 36.7109 28.5781 36.7109 29.5156C36.7109 30.0104 36.6458 30.5443 36.5156 31.1172C36.3854 31.6901 36.1706 32.2565 35.8711 32.8164C35.5716 33.3633 35.1745 33.8776 34.6797 34.3594C34.1979 34.8281 33.599 35.2122 32.8828 35.5117C33.4688 35.707 34.0677 35.9805 34.6797 36.332C35.2917 36.6836 35.8451 37.1393 36.3398 37.6992C36.8477 38.2461 37.2643 38.9167 37.5898 39.7109C37.9154 40.4922 38.0781 41.4297 38.0781 42.5234C38.0781 43.1484 38 43.7995 37.8438 44.4766C37.7005 45.1406 37.4596 45.7852 37.1211 46.4102C36.7956 47.0352 36.3724 47.6276 35.8516 48.1875C35.3307 48.7474 34.6992 49.2357 33.957 49.6523C33.2148 50.069 32.3555 50.401 31.3789 50.6484C30.4154 50.8828 29.3151 51 28.0781 51L15.9688 51L15.9688 22.2891ZM27.5117 47.6406C28.7617 47.6406 29.8099 47.5234 30.6563 47.2891C31.5156 47.0417 32.2057 46.7031 32.7266 46.2734C33.2604 45.8307 33.6445 45.3034 33.8789 44.6914C34.1133 44.0794 34.2305 43.3958 34.2305 42.6406C34.2305 41.8854 34.1133 41.2018 33.8789 40.5898C33.6445 39.9779 33.2604 39.457 32.7266 39.0273C32.2057 38.5846 31.5156 38.2461 30.6563 38.0117C29.8099 37.7643 28.7617 37.6406 27.5117 37.6406L19.7969 37.6406L19.7969 47.6406L27.5117 47.6406ZM26.9648 34.5156C28.2279 34.5156 29.2435 34.3984 30.0117 34.1641C30.793 33.9167 31.3919 33.5911 31.8086 33.1875C32.2383 32.7708 32.5247 32.2826 32.668 31.7227C32.8112 31.1628 32.8828 30.5638 32.8828 29.9258C32.8828 29.2487 32.7786 28.6497 32.5703 28.1289C32.375 27.5951 32.043 27.1458 31.5742 26.7812C31.1055 26.4167 30.4935 26.1367 29.7383 25.9414C28.9831 25.7461 28.0586 25.6484 26.9648 25.6484L19.7969 25.6484L19.7969 34.5156L26.9648 34.5156ZM69.2305 36.6445C69.2305 37.8815 69.1068 39.1185 68.8594 40.3555C68.612 41.5794 68.2344 42.7513 67.7266 43.8711C67.2188 44.9779 66.5807 46.013 65.8125 46.9766C65.0573 47.9271 64.1589 48.7604 63.1172 49.4766C62.0755 50.1797 60.8971 50.7266 59.582 51.1172C58.2799 51.5208 56.8346 51.7227 55.2461 51.7227C53.6576 51.7227 52.2057 51.5208 50.8906 51.1172C49.5755 50.7266 48.3971 50.1797 47.3555 49.4766C46.3268 48.7604 45.4284 47.9271 44.6602 46.9766C43.8919 46.013 43.2539 44.9779 42.7461 43.8711C42.2383 42.7513 41.8607 41.5794 41.6133 40.3555C41.3659 39.1185 41.2422 37.8815 41.2422 36.6445C41.2422 34.418 41.5547 32.3802 42.1797 30.5312C42.8177 28.6823 43.7357 27.0937 44.9336 25.7656C46.1315 24.4375 47.5964 23.4089 49.3281 22.6797C51.0599 21.9375 53.0326 21.5664 55.2461 21.5664C57.4466 21.5664 59.4128 21.9375 61.1445 22.6797C62.8893 23.4089 64.3542 24.4375 65.5391 25.7656C66.737 27.0937 67.6484 28.6823 68.2734 30.5312C68.9115 32.3802 69.2305 34.418 69.2305 36.6445ZM65.4023 36.6445C65.4023 34.9388 65.1745 33.3698 64.7188 31.9375C64.263 30.4922 63.599 29.2552 62.7266 28.2266C61.8672 27.1849 60.806 26.3776 59.543 25.8047C58.2799 25.2187 56.8477 24.9258 55.2461 24.9258C53.6315 24.9258 52.1927 25.2187 50.9297 25.8047C49.6667 26.3776 48.599 27.1849 47.7266 28.2266C46.8672 29.2552 46.2096 30.4922 45.7539 31.9375C45.2982 33.3698 45.0703 34.9388 45.0703 36.6445C45.0703 38.3893 45.2786 39.9844 45.6953 41.4297C46.112 42.862 46.7435 44.0924 47.5898 45.1211C48.4362 46.1497 49.4909 46.9505 50.7539 47.5234C52.0299 48.0833 53.5273 48.3633 55.2461 48.3633C56.9518 48.3633 58.4427 48.0833 59.7188 47.5234C60.9948 46.9505 62.0495 46.1497 62.8828 45.1211C63.7292 44.0924 64.3607 42.862 64.7773 41.4297C65.194 39.9844 65.4023 38.3893 65.4023 36.6445ZM81.1055 34.3203L86.2813 34.3203C87.1016 34.3203 87.8112 34.1966 88.4102 33.9492C89.0091 33.6888 89.5039 33.3503 89.8945 32.9336C90.2852 32.5039 90.5716 32.0286 90.7539 31.5078C90.9492 30.974 91.0469 30.4336 91.0469 29.8867C91.0469 28.9883 90.8711 28.2266 90.5195 27.6016C90.168 26.9766 89.6862 26.4687 89.0742 26.0781C88.4622 25.6745 87.7331 25.3815 86.8867 25.1992C86.0534 25.0169 85.1419 24.9258 84.1523 24.9258C82.9154 24.9258 81.8216 25.1016 80.8711 25.4531C79.9336 25.7917 79.1458 26.2539 78.5078 26.8398C77.8828 27.4128 77.4141 28.0833 77.1016 28.8516C76.8021 29.6198 76.6654 30.4271 76.6914 31.2734L73.0781 31.2734C73.0781 30.0495 73.2214 28.9557 73.5078 27.9922C73.8073 27.0286 74.2174 26.1888 74.7383 25.4727C75.2591 24.7565 75.8711 24.151 76.5742 23.6562C77.2773 23.1615 78.0391 22.7578 78.8594 22.4453C79.6927 22.1328 80.5651 21.9115 81.4766 21.7812C82.401 21.638 83.332 21.5664 84.2695 21.5664C85.806 21.5664 87.2057 21.7357 88.4688 22.0742C89.7448 22.3997 90.8385 22.8945 91.75 23.5586C92.6615 24.2096 93.3711 25.0299 93.8789 26.0195C94.3867 26.9961 94.6406 28.1354 94.6406 29.4375C94.6406 30.9219 94.3477 32.1784 93.7617 33.207C93.1888 34.2227 92.1927 34.9909 90.7734 35.5117V35.6094C91.5156 35.8177 92.1927 36.1237 92.8047 36.5273C93.4297 36.918 93.9635 37.4128 94.4063 38.0117C94.862 38.5977 95.2135 39.2943 95.4609 40.1016C95.7214 40.9089 95.8516 41.8333 95.8516 42.875C95.8516 44.3333 95.5326 45.6159 94.8945 46.7227C94.2565 47.8294 93.4036 48.7539 92.3359 49.4961C91.2682 50.2383 90.0247 50.7917 88.6055 51.1562C87.1992 51.5339 85.7279 51.7227 84.1914 51.7227C82.5508 51.7227 81.0208 51.5664 79.6016 51.2539C78.1823 50.9544 76.9323 50.4531 75.8516 49.75C74.7839 49.0469 73.9245 48.1224 73.2734 46.9766C72.6224 45.8177 72.2513 44.3984 72.1602 42.7187L75.9297 42.7187C75.9948 43.5391 76.1836 44.2943 76.4961 44.9844C76.8216 45.6745 77.2969 46.2734 77.9219 46.7812C78.5599 47.276 79.3607 47.6667 80.3242 47.9531C81.3008 48.2266 82.4727 48.3633 83.8398 48.3633C85.0768 48.3633 86.1966 48.2591 87.1992 48.0508C88.2148 47.8424 89.0742 47.5104 89.7773 47.0547C90.4935 46.599 91.0404 46.013 91.418 45.2969C91.8086 44.5677 92.0039 43.6953 92.0039 42.6797C92.0039 41.9245 91.8802 41.2344 91.6328 40.6094C91.3984 39.9844 91.0339 39.444 90.5391 38.9883C90.0443 38.5326 89.4258 38.181 88.6836 37.9336C87.9414 37.6732 87.0625 37.543 86.0469 37.543L81.1055 37.543L81.1055 34.3203ZM107.746 34.3203L112.922 34.3203C113.742 34.3203 114.452 34.1966 115.051 33.9492C115.65 33.6888 116.145 33.3503 116.535 32.9336C116.926 32.5039 117.212 32.0286 117.395 31.5078C117.59 30.974 117.688 30.4336 117.688 29.8867C117.688 28.9883 117.512 28.2266 117.16 27.6016C116.809 26.9766 116.327 26.4687 115.715 26.0781C115.103 25.6745 114.374 25.3815 113.527 25.1992C112.694 25.0169 111.783 24.9258 110.793 24.9258C109.556 24.9258 108.462 25.1016 107.512 25.4531C106.574 25.7917 105.786 26.2539 105.148 26.8398C104.523 27.4128 104.055 28.0833 103.742 28.8516C103.443 29.6198 103.306 30.4271 103.332 31.2734L99.7188 31.2734C99.7188 30.0495 99.862 28.9557 100.148 27.9922C100.448 27.0286 100.858 26.1888 101.379 25.4727C101.9 24.7565 102.512 24.151 103.215 23.6562C103.918 23.1615 104.68 22.7578 105.5 22.4453C106.333 22.1328 107.206 21.9115 108.117 21.7812C109.042 21.638 109.973 21.5664 110.91 21.5664C112.447 21.5664 113.846 21.7357 115.109 22.0742C116.385 22.3997 117.479 22.8945 118.391 23.5586C119.302 24.2096 120.012 25.0299 120.52 26.0195C121.027 26.9961 121.281 28.1354 121.281 29.4375C121.281 30.9219 120.988 32.1784 120.402 33.207C119.829 34.2227 118.833 34.9909 117.414 35.5117V35.6094C118.156 35.8177 118.833 36.1237 119.445 36.5273C120.07 36.918 120.604 37.4128 121.047 38.0117C121.503 38.5977 121.854 39.2943 122.102 40.1016C122.362 40.9089 122.492 41.8333 122.492 42.875C122.492 44.3333 122.173 45.6159 121.535 46.7227C120.897 47.8294 120.044 48.7539 118.977 49.4961C117.909 50.2383 116.665 50.7917 115.246 51.1562C113.84 51.5339 112.368 51.7227 110.832 51.7227C109.191 51.7227 107.661 51.5664 106.242 51.2539C104.823 50.9544 103.573 50.4531 102.492 49.75C101.424 49.0469 100.565 48.1224 99.9141 46.9766C99.263 45.8177 98.8919 44.3984 98.8008 42.7187L102.57 42.7187C102.635 43.5391 102.824 44.2943 103.137 44.9844C103.462 45.6745 103.938 46.2734 104.563 46.7812C105.201 47.276 106.001 47.6667 106.965 47.9531C107.941 48.2266 109.113 48.3633 110.48 48.3633C111.717 48.3633 112.837 48.2591 113.84 48.0508C114.855 47.8424 115.715 47.5104 116.418 47.0547C117.134 46.599 117.681 46.013 118.059 45.2969C118.449 44.5677 118.645 43.6953 118.645 42.6797C118.645 41.9245 118.521 41.2344 118.273 40.6094C118.039 39.9844 117.674 39.444 117.18 38.9883C116.685 38.5326 116.066 38.181 115.324 37.9336C114.582 37.6732 113.703 37.543 112.688 37.543L107.746 37.543L107.746 34.3203ZM127.063 22.2891L137.336 22.2891C138.469 22.2891 139.458 22.3216 140.305 22.3867C141.151 22.4388 141.945 22.5625 142.688 22.7578C143.391 22.9531 144.048 23.2396 144.66 23.6172C145.285 23.9818 145.832 24.4505 146.301 25.0234C146.77 25.5833 147.134 26.2409 147.395 26.9961C147.668 27.7383 147.805 28.5781 147.805 29.5156C147.805 30.0104 147.74 30.5443 147.609 31.1172C147.479 31.6901 147.264 32.2565 146.965 32.8164C146.665 33.3633 146.268 33.8776 145.773 34.3594C145.292 34.8281 144.693 35.2122 143.977 35.5117C144.563 35.707 145.161 35.9805 145.773 36.332C146.385 36.6836 146.939 37.1393 147.434 37.6992C147.941 38.2461 148.358 38.9167 148.684 39.7109C149.009 40.4922 149.172 41.4297 149.172 42.5234C149.172 43.1484 149.094 43.7995 148.938 44.4766C148.794 45.1406 148.553 45.7852 148.215 46.4102C147.889 47.0352 147.466 47.6276 146.945 48.1875C146.424 48.7474 145.793 49.2357 145.051 49.6523C144.309 50.069 143.449 50.401 142.473 50.6484C141.509 50.8828 140.409 51 139.172 51L127.063 51L127.063 22.2891ZM138.605 47.6406C139.855 47.6406 140.904 47.5234 141.75 47.2891C142.609 47.0417 143.299 46.7031 143.82 46.2734C144.354 45.8307 144.738 45.3034 144.973 44.6914C145.207 44.0794 145.324 43.3958 145.324 42.6406C145.324 41.8854 145.207 41.2018 144.973 40.5898C144.738 39.9779 144.354 39.457 143.82 39.0273C143.299 38.5846 142.609 38.2461 141.75 38.0117C140.904 37.7643 139.855 37.6406 138.605 37.6406L130.891 37.6406V47.6406L138.605 47.6406ZM138.059 34.5156C139.322 34.5156 140.337 34.3984 141.105 34.1641C141.887 33.9167 142.486 33.5911 142.902 33.1875C143.332 32.7708 143.618 32.2826 143.762 31.7227C143.905 31.1628 143.977 30.5638 143.977 29.9258C143.977 29.2487 143.872 28.6497 143.664 28.1289C143.469 27.5951 143.137 27.1458 142.668 26.7812C142.199 26.4167 141.587 26.1367 140.832 25.9414C140.077 25.7461 139.152 25.6484 138.059 25.6484L130.891 25.6484L130.891 34.5156L138.059 34.5156ZM180.324 36.6445C180.324 37.8815 180.201 39.1185 179.953 40.3555C179.706 41.5794 179.328 42.7513 178.82 43.8711C178.313 44.9779 177.674 46.013 176.906 46.9766C176.151 47.9271 175.253 48.7604 174.211 49.4766C173.169 50.1797 171.991 50.7266 170.676 51.1172C169.374 51.5208 167.928 51.7227 166.34 51.7227C164.751 51.7227 163.299 51.5208 161.984 51.1172C160.669 50.7266 159.491 50.1797 158.449 49.4766C157.421 48.7604 156.522 47.9271 155.754 46.9766C154.986 46.013 154.348 44.9779 153.84 43.8711C153.332 42.7513 152.954 41.5794 152.707 40.3555C152.46 39.1185 152.336 37.8815 152.336 36.6445C152.336 34.418 152.648 32.3802 153.273 30.5312C153.911 28.6823 154.829 27.0937 156.027 25.7656C157.225 24.4375 158.69 23.4089 160.422 22.6797C162.154 21.9375 164.126 21.5664 166.34 21.5664C168.54 21.5664 170.507 21.9375 172.238 22.6797C173.983 23.4089 175.448 24.4375 176.633 25.7656C177.831 27.0937 178.742 28.6823 179.367 30.5312C180.005 32.3802 180.324 34.418 180.324 36.6445ZM176.496 36.6445C176.496 34.9388 176.268 33.3698 175.813 31.9375C175.357 30.4922 174.693 29.2552 173.82 28.2266C172.961 27.1849 171.9 26.3776 170.637 25.8047C169.374 25.2187 167.941 24.9258 166.34 24.9258C164.725 24.9258 163.286 25.2187 162.023 25.8047C160.76 26.3776 159.693 27.1849 158.82 28.2266C157.961 29.2552 157.303 30.4922 156.848 31.9375C156.392 33.3698 156.164 34.9388 156.164 36.6445C156.164 38.3893 156.372 39.9844 156.789 41.4297C157.206 42.862 157.837 44.0924 158.684 45.1211C159.53 46.1497 160.585 46.9505 161.848 47.5234C163.124 48.0833 164.621 48.3633 166.34 48.3633C168.046 48.3633 169.536 48.0833 170.813 47.5234C172.089 46.9505 173.143 46.1497 173.977 45.1211C174.823 44.0924 175.454 42.862 175.871 41.4297C176.288 39.9844 176.496 38.3893 176.496 36.6445ZM182.629 57.1523L182.629 47.6406L185.227 47.6406C185.5 47.0156 185.754 46.3841 185.988 45.7461C186.223 45.0951 186.438 44.3659 186.633 43.5586C186.841 42.7383 187.03 41.8008 187.199 40.7461C187.382 39.6914 187.551 38.4414 187.707 36.9961C187.889 35.4727 188.033 33.9753 188.137 32.5039C188.241 31.0195 188.319 29.6328 188.371 28.3437C188.436 27.0547 188.475 25.8893 188.488 24.8477C188.514 23.806 188.534 22.9531 188.547 22.2891L206.594 22.2891L206.594 47.6406L209.836 47.6406L209.836 57.1523L206.242 57.1523L206.242 51L186.223 51L186.223 57.1523L182.629 57.1523ZM192.141 25.6484C192.141 27.5104 192.063 29.3659 191.906 31.2148C191.763 33.0638 191.587 34.9258 191.379 36.8008C191.236 38.2852 191.086 39.5482 190.93 40.5898C190.786 41.6185 190.63 42.5365 190.461 43.3437C190.305 44.138 190.122 44.8737 189.914 45.5508C189.719 46.2148 189.491 46.9115 189.23 47.6406L202.648 47.6406L202.648 25.6484L192.141 25.6484ZM212.922 22.2891L216.75 22.2891L216.75 45.5117H216.828L231.438 22.2891L235.871 22.2891L235.871 51L232.023 51L232.023 27.6406H231.945L217.355 51L212.922 51L212.922 22.2891ZM241.828 22.2891L247.336 22.2891L255.461 46.4492H255.539L263.664 22.2891L269.172 22.2891L269.172 51L265.578 51L265.578 26.8398H265.5L257.414 51L253.586 51L245.5 26.8398H245.422L245.422 51L241.828 51L241.828 22.2891Z" fill="black"/>
</svg>
